<svg width="808" height="701" viewBox="0 0 808 701" fill="none" xmlns="http://www.w3.org/2000/svg">
<path d="M1.42859 690.124H807" stroke="#263238" stroke-linecap="round" stroke-linejoin="round"/>
<path d="M621.384 418.378V418.584C621.384 418.921 621.459 419.277 621.609 419.652C622.447 423.756 623.072 427.902 623.482 432.071C623.838 435.649 624.119 439.732 624.194 444.284C624.372 454.804 623.651 465.319 622.04 475.717C621.628 478.451 621.141 481.336 620.56 484.221C619.642 488.979 618.518 493.961 617.132 499.113C616.514 501.511 615.802 503.964 615.053 506.437L614.172 509.453C613.835 510.671 613.498 511.888 613.18 513.199C611.026 521.521 609.307 529.95 608.028 538.45C606.436 549.034 605.443 559.542 604.9 569.489C604.169 582.751 604.207 595.002 604.525 605.08C604.516 605.248 604.516 605.417 604.525 605.586C604.863 615.832 605.499 623.868 605.93 628.439C606.174 631.118 606.342 632.635 606.361 632.729" stroke="#263238" stroke-linecap="round" stroke-linejoin="round"/>
<path d="M621.44 418.64C618.636 416.148 615.257 414.391 611.606 413.526Z" fill="white"/>
<path d="M621.44 418.64C618.636 416.148 615.257 414.391 611.606 413.526" stroke="#263238" stroke-linecap="round" stroke-linejoin="round"/>
<path d="M623.538 432.127L628.521 427.613" stroke="#263238" stroke-linecap="round" stroke-linejoin="round"/>
<path d="M617.188 499.132C616.927 497.817 616.538 496.531 616.027 495.291C615.288 493.474 614.285 491.776 613.049 490.253C612.125 489.108 611.076 488.071 609.92 487.162" stroke="#263238" stroke-linecap="round" stroke-linejoin="round"/>
<path d="M613.198 513.181C613.904 511.431 614.962 509.845 616.305 508.521C617.649 507.197 619.25 506.162 621.01 505.482" stroke="#263238" stroke-linecap="round" stroke-linejoin="round"/>
<path d="M604.544 582.864C606.211 580.841 607.466 573.179 608.141 569.058C608.309 568.084 608.44 567.185 608.571 566.642" fill="white"/>
<path d="M604.544 582.864C606.211 580.841 607.466 573.179 608.141 569.058C608.309 568.084 608.44 567.185 608.571 566.642" stroke="#263238" stroke-linecap="round" stroke-linejoin="round"/>
<path d="M591.713 596.763C592.267 596.707 592.826 596.707 593.38 596.763C595.833 597.001 598.176 597.903 600.156 599.372C602.136 600.84 603.679 602.82 604.619 605.099" fill="white"/>
<path d="M591.713 596.763C592.267 596.707 592.826 596.707 593.38 596.763C595.833 597.001 598.176 597.903 600.156 599.372C602.136 600.84 603.679 602.82 604.619 605.099" stroke="#263238" stroke-linecap="round" stroke-linejoin="round"/>
<path d="M620.616 484.371C620.616 484.371 621.497 453.969 604.806 442.935" stroke="#263238" stroke-linecap="round" stroke-linejoin="round"/>
<path d="M622.04 549.54C624.232 556.639 608.927 570.145 608.927 570.145C608.927 570.145 588.716 567.616 586.449 560.535C584.182 553.455 589.371 541.803 599.187 538.806C609.002 535.809 619.923 542.44 622.04 549.54Z" fill="#1B1B72"/>
<path d="M639.067 463.503C637.194 470.996 622.658 476.372 622.658 476.372C622.658 476.372 612.674 464.702 614.547 457.172C616.42 449.642 624.494 441.362 631.275 443.104C638.056 444.846 641.015 455.973 639.067 463.503Z" fill="#1B1B72"/>
<path d="M581.017 576.027C590.102 579.548 595.665 595.62 595.665 595.62C595.665 595.62 580.679 603.694 571.613 600.153C562.547 596.613 552.881 586.648 555.504 579.998C558.126 573.348 571.932 572.411 581.017 576.027Z" fill="#1B1B72"/>
<path d="M600.929 487.611C602.768 489.158 604.876 490.351 607.148 491.133C608.288 491.502 609.508 491.551 610.675 491.273C611.841 490.996 612.908 490.403 613.76 489.559C615.633 487.33 615.184 483.94 613.966 481.149C611.531 475.81 602.577 466.725 595.703 469.329C585.775 473.131 596.508 484.371 600.929 487.611Z" fill="#1B1B72"/>
<path d="M621.253 501.23C619.942 502.84 618.556 504.882 619.286 506.849C619.694 507.675 620.363 508.344 621.189 508.75C622.016 509.157 622.954 509.279 623.857 509.097C625.654 508.671 627.331 507.845 628.765 506.681C632.268 504.245 639.461 499.188 634.871 494.374C630.282 489.559 623.913 497.839 621.253 501.23Z" fill="#1B1B72"/>
<path d="M591.937 433.288C591.181 433.332 590.458 433.613 589.87 434.09C589.282 434.567 588.858 435.217 588.659 435.948C588.36 437.69 589.802 439.208 591.188 440.275C594.672 442.973 605.144 450.203 607.466 443.216C609.677 436.623 596.546 432.783 591.937 433.288Z" fill="#1B1B72"/>
<path d="M611.213 410.323C609.059 410.529 606.904 409.742 604.731 409.873C602.559 410.004 600.18 411.747 600.648 413.882C601.116 416.017 603.533 416.486 605.518 416.598C608.937 416.818 612.37 416.585 615.727 415.905C616.522 415.83 617.259 415.455 617.788 414.856C618.668 413.564 617.282 411.84 615.783 411.391C614.245 411.186 612.732 410.822 611.269 410.304L611.213 410.323Z" fill="#1B1B72"/>
<path d="M632.305 425.177C634.459 425.177 636.557 424.316 638.73 424.297C640.903 424.278 643.413 425.871 643.057 428.043C642.701 430.216 640.379 430.835 638.393 431.078C634.999 431.528 631.56 431.528 628.165 431.078C627.361 431.06 626.596 430.731 626.03 430.16C625.074 428.943 626.348 427.126 627.791 426.564C629.318 426.279 630.807 425.82 632.23 425.196L632.305 425.177Z" fill="#1B1B72"/>
<path d="M630.169 584.812C630.666 584.294 631.329 583.969 632.043 583.894C632.524 583.94 632.974 584.152 633.316 584.494C633.658 584.836 633.87 585.286 633.916 585.767C634.02 586.693 633.904 587.63 633.579 588.502C632.099 593.429 615.615 629.001 611.812 622.613C609.583 618.867 615.09 606.335 616.72 602.795C619.83 595.886 624.422 589.747 630.169 584.812V584.812Z" fill="#1B1B72"/>
<path d="M622.133 420.682C622.133 420.682 621.141 412.046 623.22 411.316" stroke="#263238" stroke-linecap="round" stroke-linejoin="round"/>
<path d="M620.298 411.672C621.36 408.622 623.193 405.899 625.618 403.767C628.221 401.893 632.399 401.744 634.291 404.347C636.407 407.251 634.291 411.653 631.05 413.208C627.809 414.762 623.988 414.294 620.429 413.788C620.429 413.264 620.429 412.739 620.429 412.215L620.298 411.672Z" fill="#1B1B72"/>
<path d="M629.177 689.693C611.519 692.671 593.486 692.671 575.828 689.693V689.693L555.073 628.458H649.932L629.177 689.693Z" fill="white" stroke="#263238" stroke-linecap="round" stroke-linejoin="round"/>
<path d="M267.161 247.279V247.485C267.236 247.822 267.311 248.178 267.386 248.553C268.235 252.656 268.86 256.802 269.259 260.972C269.615 264.55 269.877 268.634 269.971 273.186C270.163 283.679 269.461 294.169 267.873 304.543C267.461 307.278 266.974 310.163 266.393 313.047C265.475 317.805 264.333 322.788 262.965 327.939C262.328 330.337 261.635 332.791 260.886 335.264C260.586 336.275 260.287 337.268 260.006 338.28C259.725 339.291 259.313 340.715 258.994 342.026" stroke="#263238" stroke-linecap="round" stroke-linejoin="round"/>
<path d="M267.199 247.542C265.855 246.365 264.385 245.341 262.815 244.488C261.085 243.576 259.248 242.884 257.346 242.428" fill="white"/>
<path d="M267.199 247.542C265.855 246.365 264.385 245.341 262.815 244.488C261.085 243.576 259.248 242.884 257.346 242.428" stroke="#263238" stroke-linecap="round" stroke-linejoin="round"/>
<path d="M269.297 261.029L274.298 256.514" stroke="#263238" stroke-linecap="round" stroke-linejoin="round"/>
<path d="M262.965 328.033C262.698 326.718 262.303 325.432 261.785 324.193C261.047 322.375 260.043 320.677 258.807 319.154C257.884 318.009 256.834 316.973 255.679 316.063" stroke="#263238" stroke-linecap="round" stroke-linejoin="round"/>
<path d="M258.975 342.007C259.674 340.257 260.727 338.669 262.068 337.345C263.409 336.02 265.009 334.986 266.768 334.308" stroke="#263238" stroke-linecap="round" stroke-linejoin="round"/>
<path d="M250.302 411.765C251.97 409.742 253.243 402.081 253.918 397.96C254.068 396.986 254.217 396.087 254.33 395.543" fill="white"/>
<path d="M250.302 411.765C251.97 409.742 253.243 402.081 253.918 397.96C254.068 396.986 254.217 396.087 254.33 395.543" stroke="#263238" stroke-linecap="round" stroke-linejoin="round"/>
<path d="M237.471 425.59C238.032 425.533 238.596 425.533 239.157 425.59C241.609 425.834 243.948 426.738 245.927 428.206C247.906 429.674 249.451 431.65 250.396 433.925" fill="white"/>
<path d="M237.471 425.59C238.032 425.533 238.596 425.533 239.157 425.59C241.609 425.834 243.948 426.738 245.927 428.206C247.906 429.674 249.451 431.65 250.396 433.925" stroke="#263238" stroke-linecap="round" stroke-linejoin="round"/>
<path d="M266.375 313.197C266.375 313.197 267.274 282.795 250.565 271.762" stroke="#263238" stroke-linecap="round" stroke-linejoin="round"/>
<path d="M267.892 378.441C270.065 385.54 254.779 399.046 254.779 399.046C254.779 399.046 234.549 396.517 232.301 389.437C230.053 382.356 235.242 370.705 245.039 367.708C254.836 364.71 265.7 371.36 267.892 378.441Z" fill="#1B1B72"/>
<path d="M284.863 292.405C282.99 299.898 268.454 305.274 268.454 305.274C268.454 305.274 258.357 293.604 260.305 286.073C262.254 278.543 270.233 270.263 277.014 272.005C283.795 273.748 286.736 284.874 284.863 292.405Z" fill="#1B1B72"/>
<path d="M226.794 404.928C235.879 408.468 241.461 424.522 241.461 424.522C241.461 424.522 226.475 432.595 217.39 429.055C208.305 425.515 198.658 415.549 201.299 408.899C203.941 402.249 217.69 401.388 226.794 404.928Z" fill="#1B1B72"/>
<path d="M246.706 316.513C248.538 318.059 250.64 319.252 252.906 320.034C254.047 320.404 255.267 320.452 256.433 320.175C257.599 319.897 258.667 319.304 259.519 318.461C261.392 316.232 260.942 312.841 259.725 310.05C257.29 304.712 248.354 295.627 241.461 298.23C231.552 301.995 242.266 313.235 246.706 316.513Z" fill="#1B1B72"/>
<path d="M267.011 330.15C265.719 331.761 264.333 333.896 265.045 335.769C265.452 336.596 266.121 337.264 266.948 337.67C267.774 338.077 268.712 338.199 269.615 338.017C271.413 337.594 273.092 336.768 274.523 335.601C278.026 333.184 285.219 328.108 280.63 323.294C276.04 318.48 269.765 326.741 267.011 330.15Z" fill="#1B1B72"/>
<path d="M237.696 262.19C236.94 262.237 236.219 262.518 235.631 262.995C235.043 263.472 234.619 264.12 234.418 264.85C234.118 266.592 235.56 268.109 236.965 269.177C240.449 271.874 250.902 279.105 253.243 272.118C255.435 265.524 242.323 261.684 237.696 262.19Z" fill="#1B1B72"/>
<path d="M256.971 239.224C254.817 239.43 252.663 238.644 250.509 238.775C248.354 238.906 245.938 240.648 246.425 242.784C246.912 244.919 249.291 245.387 251.295 245.5C254.708 245.719 258.134 245.486 261.486 244.807C262.286 244.732 263.029 244.357 263.565 243.758C264.426 242.465 263.04 240.742 261.56 240.292C260.016 240.088 258.497 239.724 257.027 239.206L256.971 239.224Z" fill="#1B1B72"/>
<path d="M278.063 254.079C280.236 254.079 282.334 253.217 284.488 253.199C286.643 253.18 289.171 254.772 288.834 256.945C288.497 259.118 286.137 259.736 284.151 259.98C280.757 260.429 277.318 260.429 273.924 259.98C273.12 259.961 272.355 259.632 271.788 259.062C270.833 257.844 272.107 256.027 273.568 255.465C275.093 255.175 276.582 254.716 278.007 254.098L278.063 254.079Z" fill="#1B1B72"/>
<path d="M275.928 413.713C276.426 413.198 277.089 412.874 277.801 412.796C278.279 412.851 278.723 413.067 279.063 413.407C279.403 413.746 279.619 414.191 279.674 414.669C279.771 415.596 279.649 416.532 279.318 417.404C277.857 422.33 261.354 457.902 257.571 451.515C255.323 447.768 260.83 435.237 262.46 431.696C265.575 424.786 270.173 418.647 275.928 413.713V413.713Z" fill="#1B1B72"/>
<path d="M267.892 249.621C267.892 249.621 266.899 240.985 268.997 240.255" stroke="#263238" stroke-linecap="round" stroke-linejoin="round"/>
<path d="M266.131 240.573C267.179 237.517 269.014 234.79 271.451 232.668C274.055 230.795 278.213 230.645 280.105 233.249C282.222 236.152 280.105 240.554 276.864 242.109C273.624 243.664 269.821 243.196 266.262 242.69C266.262 242.165 266.262 241.641 266.262 241.116L266.131 240.573Z" fill="#1B1B72"/>
<path d="M29.8264 454.343V269.252" stroke="#263238" stroke-linecap="round" stroke-linejoin="round"/>
<path d="M607.71 454.343H584.838" stroke="#263238" stroke-linecap="round" stroke-linejoin="round"/>
<path d="M787.069 454.343H740.483" stroke="#263238" stroke-linecap="round" stroke-linejoin="round"/>
<path d="M582.74 173.157H665.292V94.5194" stroke="#263238" stroke-linecap="round" stroke-linejoin="round"/>
<path d="M101.589 149.142H189.292V213.112H285.425" stroke="#263238" stroke-linecap="round" stroke-linejoin="round"/>
<path d="M49.8509 365.778V224.426" stroke="#263238" stroke-linecap="round" stroke-linejoin="round"/>
<path d="M89.0384 163.079V273.86" stroke="#263238" stroke-linecap="round" stroke-linejoin="round"/>
<path d="M128.207 163.079V261.01" stroke="#263238" stroke-linecap="round" stroke-linejoin="round"/>
<path d="M167.376 163.079V334.383" stroke="#263238" stroke-linecap="round" stroke-linejoin="round"/>
<path d="M355.015 138.783V26.1475H514.48V138.783" stroke="#263238" stroke-linecap="round" stroke-linejoin="round"/>
<path d="M366.703 82.1V39.5221H396.188" stroke="#263238" stroke-linecap="round" stroke-linejoin="round"/>
<path d="M402.669 82.1V39.5221H432.153" stroke="#263238" stroke-linecap="round" stroke-linejoin="round"/>
<path d="M438.634 82.1V39.5221H468.119" stroke="#263238" stroke-linecap="round" stroke-linejoin="round"/>
<path d="M474.6 82.1V39.5221H504.084" stroke="#263238" stroke-linecap="round" stroke-linejoin="round"/>
<path d="M366.703 138.783V96.2053H396.188" stroke="#263238" stroke-linecap="round" stroke-linejoin="round"/>
<path d="M402.669 138.783V96.2053H432.153" stroke="#263238" stroke-linecap="round" stroke-linejoin="round"/>
<path d="M438.634 138.783V96.2053H468.119" stroke="#263238" stroke-linecap="round" stroke-linejoin="round"/>
<path d="M474.6 138.783V96.2053H504.084" stroke="#263238" stroke-linecap="round" stroke-linejoin="round"/>
<path d="M678.067 104.26V245.406" stroke="#263238" stroke-linecap="round" stroke-linejoin="round"/>
<path d="M735.968 444.003H740.483" stroke="#263238" stroke-linecap="round" stroke-linejoin="round"/>
<path d="M712.778 144.796V302.82" stroke="#263238" stroke-linecap="round" stroke-linejoin="round"/>
<path d="M747.507 403.654V444.003H775.212" stroke="#263238" stroke-linecap="round" stroke-linejoin="round"/>
<path d="M747.507 196.309V303.625" stroke="#263238" stroke-linecap="round" stroke-linejoin="round"/>
<path d="M782.218 277.738V444.003H788.53" stroke="#263238" stroke-linecap="round" stroke-linejoin="round"/>
<path d="M359.211 457.734H1.42859V690.123H359.211V457.734Z" fill="white" stroke="#263238" stroke-linecap="round" stroke-linejoin="round"/>
<path d="M1.42859 457.734L180.32 573.929L359.211 457.734H1.42859Z" fill="white" stroke="#263238" stroke-linecap="round" stroke-linejoin="round"/>
<path d="M126.54 538.993L1.42859 690.124" stroke="#263238" stroke-linecap="round" stroke-linejoin="round"/>
<path d="M235.073 538.993L360.185 690.124" stroke="#263238" stroke-linecap="round" stroke-linejoin="round"/>
<path d="M550.671 161.206H467.5C465.105 161.208 462.754 161.853 460.692 163.072C458.63 164.29 456.932 166.039 455.774 168.136V168.136C453.73 171.825 450.736 174.899 447.103 177.04C443.47 179.18 439.33 180.309 435.113 180.309C430.896 180.309 426.756 179.18 423.122 177.04C419.489 174.899 416.495 171.825 414.451 168.136V168.136C413.303 166.012 411.602 164.238 409.528 163.001C407.453 161.765 405.084 161.112 402.669 161.112H319.592C317.312 161.082 315.048 161.502 312.93 162.347C310.812 163.193 308.881 164.447 307.247 166.039C305.614 167.63 304.31 169.528 303.41 171.623C302.51 173.719 302.032 175.971 302.003 178.252V647.34C302.067 651.943 303.955 656.334 307.253 659.547C310.55 662.761 314.988 664.534 319.592 664.479H550.671C555.277 664.534 559.716 662.761 563.017 659.548C566.318 656.336 568.21 651.945 568.279 647.34V178.345C568.215 173.738 566.324 169.345 563.022 166.131C559.721 162.917 555.278 161.146 550.671 161.206Z" fill="#1B1B72"/>
<path d="M576.39 173.157C576.4 169.997 575.786 166.866 574.583 163.944C573.381 161.021 571.614 158.365 569.383 156.127C567.152 153.889 564.501 152.114 561.583 150.902C558.664 149.691 555.535 149.067 552.375 149.067H317.906C314.754 149.065 311.631 149.684 308.718 150.888C305.804 152.093 303.157 153.86 300.927 156.089C298.697 158.317 296.927 160.963 295.72 163.876C294.513 166.788 293.892 169.91 293.892 173.063V173.063V666.072C293.892 672.436 296.42 678.539 300.92 683.039C305.42 687.539 311.524 690.067 317.888 690.067H552.375C558.741 690.067 564.847 687.54 569.35 683.04C573.853 678.541 576.385 672.437 576.39 666.072V666.072V173.157ZM568.279 647.34C568.21 651.945 566.318 656.335 563.017 659.548C559.716 662.761 555.277 664.534 550.671 664.479H319.592C314.988 664.534 310.55 662.761 307.253 659.547C303.955 656.334 302.067 651.943 302.003 647.34V178.345C302.032 176.065 302.51 173.813 303.41 171.717C304.31 169.622 305.614 167.724 307.247 166.132C308.881 164.541 310.812 163.286 312.93 162.441C315.048 161.596 317.312 161.176 319.592 161.206H402.706C405.119 161.205 407.486 161.858 409.558 163.094C411.629 164.331 413.326 166.106 414.47 168.23V168.23C416.514 171.919 419.508 174.993 423.141 177.133C426.774 179.274 430.915 180.403 435.132 180.403C439.348 180.403 443.489 179.274 447.122 177.133C450.755 174.993 453.749 171.919 455.793 168.23C456.947 166.13 458.645 164.379 460.708 163.16C462.77 161.941 465.123 161.298 467.519 161.299H550.689C552.97 161.27 555.234 161.689 557.352 162.535C559.47 163.38 561.401 164.634 563.034 166.226C564.668 167.817 565.972 169.715 566.871 171.811C567.771 173.906 568.25 176.159 568.279 178.439V647.34Z" fill="#263238"/>
<path opacity="0.2" d="M496.722 149.142L340.966 690.105L402.819 690.049L552.806 149.142H496.722Z" fill="white"/>
<path opacity="0.2" d="M473.495 149.142L308.821 690.124L317.831 690.067L479.414 149.142H473.495Z" fill="white"/>
<path d="M477.147 551.3C477.262 556.663 476.303 561.993 474.326 566.979C472.35 571.965 469.395 576.505 465.637 580.331C461.878 584.157 457.392 587.193 452.443 589.259C447.494 591.325 442.181 592.38 436.817 592.361C425.874 592.319 415.38 588.002 407.576 580.331C399.772 572.659 395.275 562.242 395.045 551.3C394.933 545.94 395.894 540.611 397.872 535.627C399.85 530.644 402.805 526.106 406.563 522.282C410.321 518.458 414.806 515.424 419.754 513.359C424.702 511.294 430.013 510.24 435.375 510.259C446.317 510.295 456.81 514.608 464.615 522.277C472.42 529.945 476.918 540.361 477.147 551.3V551.3Z" fill="white" stroke="#263238" stroke-linecap="round" stroke-linejoin="round"/>
<path d="M422.637 581.946C418.825 580.536 415.329 578.384 412.353 575.615C409.353 572.732 407.031 569.22 405.554 565.331C403.87 560.971 403.037 556.329 403.1 551.656C403.076 547.672 403.781 543.717 405.179 539.986C406.45 536.54 408.356 533.363 410.799 530.62C415.614 525.353 421.833 521.571 428.725 519.718C432.109 518.806 435.598 518.346 439.103 518.351C442.013 518.338 444.913 518.684 447.738 519.381C450.464 520.05 453.073 521.13 455.474 522.584C457.852 524.012 459.984 525.815 461.787 527.923C463.666 530.195 465.102 532.801 466.021 535.603C467.071 538.8 467.59 542.147 467.557 545.512C467.517 552.015 465.174 558.294 460.944 563.233C459.125 565.295 456.972 567.036 454.575 568.384C452.509 569.57 450.176 570.214 447.794 570.257C446.15 570.279 444.544 569.759 443.224 568.777C442.561 568.287 442.022 567.649 441.648 566.914C441.274 566.18 441.076 565.368 441.07 564.544C439.841 566.412 438.154 567.935 436.17 568.968C434.187 570.001 431.972 570.509 429.737 570.445C427.978 570.523 426.224 570.207 424.604 569.52C422.983 568.833 421.537 567.792 420.371 566.473C418.032 563.755 416.796 560.26 416.905 556.676C416.921 553.727 417.434 550.801 418.422 548.022C419.407 545.222 420.802 542.583 422.562 540.192C424.316 537.843 426.552 535.895 429.119 534.479C431.684 533.031 434.583 532.275 437.529 532.287C439.578 532.266 441.599 532.756 443.411 533.711C445.171 534.649 446.597 536.108 447.495 537.888L447.869 536.633C448.168 535.754 448.803 535.03 449.636 534.619C450.468 534.208 451.429 534.144 452.309 534.442C452.649 534.557 452.971 534.721 453.264 534.929C453.543 535.151 453.765 535.437 453.912 535.763C454.059 536.089 454.126 536.445 454.107 536.802C454.108 537.152 454.051 537.5 453.938 537.832L447.869 558.025C447.334 559.563 446.988 561.161 446.839 562.783C446.783 563.086 446.803 563.397 446.896 563.691C446.989 563.984 447.153 564.25 447.374 564.465C447.594 564.679 447.864 564.837 448.159 564.922C448.455 565.008 448.767 565.02 449.068 564.956C451.216 564.818 453.228 563.859 454.688 562.277C456.711 560.277 458.266 557.852 459.24 555.178C460.402 552.257 461 549.143 461 545.999C461.025 543.231 460.621 540.476 459.802 537.832C459.113 535.552 458.022 533.414 456.58 531.519C455.214 529.793 453.56 528.317 451.691 527.155C449.827 525.979 447.792 525.101 445.659 524.551C443.47 523.976 441.216 523.686 438.953 523.689C436.082 523.693 433.226 524.097 430.467 524.888C427.626 525.693 424.918 526.911 422.431 528.503C419.924 530.086 417.653 532.016 415.688 534.235C413.663 536.574 412.088 539.267 411.042 542.178C409.866 545.348 409.275 548.706 409.3 552.087C409.239 556.092 409.964 560.07 411.435 563.795C412.704 567.019 414.705 569.905 417.28 572.224C419.768 574.383 422.64 576.055 425.747 577.151C429.025 578.31 432.479 578.893 435.956 578.874C439.672 578.874 443.366 578.312 446.914 577.207C447.268 577.079 447.643 577.016 448.019 577.019C448.371 577.014 448.719 577.083 449.042 577.222C449.365 577.361 449.655 577.566 449.892 577.825C450.131 578.074 450.319 578.367 450.444 578.689C450.57 579.01 450.63 579.353 450.623 579.698C450.668 580.243 450.514 580.786 450.191 581.226C449.867 581.667 449.395 581.976 448.862 582.096C444.441 583.448 439.848 584.154 435.225 584.194C430.93 584.188 426.669 583.427 422.637 581.946V581.946ZM438.11 562.521C439.962 561.191 441.335 559.299 442.025 557.126L445.94 543.358L445.678 542.796C445.434 542.345 445.139 541.924 444.797 541.541C444.328 541 443.814 540.498 443.261 540.042C442.559 539.482 441.768 539.045 440.92 538.75C438.703 537.976 436.276 538.063 434.12 538.993C432.939 539.494 431.855 540.197 430.917 541.073C429.942 541.982 429.075 543 428.332 544.107C427.588 545.26 426.96 546.483 426.459 547.76C425.932 549.037 425.525 550.36 425.241 551.712C424.958 552.998 424.814 554.311 424.81 555.627C424.794 556.473 424.844 557.319 424.96 558.156C425.047 558.902 425.21 559.636 425.447 560.348C425.652 561.01 425.949 561.64 426.327 562.221C426.667 562.744 427.098 563.201 427.601 563.57C428.137 563.958 428.741 564.244 429.381 564.413C430.129 564.632 430.906 564.733 431.685 564.713C434.028 564.741 436.315 563.99 438.185 562.577L438.11 562.521Z" fill="#1B1B72" stroke="#263238" stroke-linecap="round" stroke-linejoin="round"/>
<path d="M476.23 410.567C476.342 415.927 475.381 421.256 473.403 426.24C471.425 431.223 468.47 435.761 464.712 439.585C460.954 443.409 456.469 446.443 451.521 448.508C446.572 450.573 441.261 451.627 435.9 451.608C424.958 451.572 414.464 447.259 406.659 439.59C398.854 431.922 394.357 421.506 394.127 410.567C394.01 405.204 394.967 399.872 396.943 394.885C398.919 389.898 401.873 385.357 405.632 381.53C409.391 377.703 413.878 374.668 418.829 372.603C423.779 370.538 429.093 369.485 434.457 369.506C445.401 369.548 455.894 373.865 463.699 381.536C471.503 389.208 476 399.626 476.23 410.567V410.567Z" fill="white" stroke="#263238" stroke-linecap="round" stroke-linejoin="round"/>
<path d="M460.944 406.82C448.075 398.391 422.843 398.391 410.574 406.82C408.33 407.241 406.312 408.454 404.888 410.239C403.465 412.024 402.73 414.261 402.819 416.542C403.006 421.993 425.653 421.993 425.466 416.542C425.355 414.263 424.485 412.087 422.993 410.36C431.487 408.525 440.275 408.525 448.768 410.36C447.386 412.118 446.67 414.307 446.745 416.542C446.933 421.993 469.58 421.993 469.374 416.542C469.267 414.21 468.377 411.981 466.848 410.217C465.318 408.453 463.238 407.256 460.944 406.82V406.82Z" fill="#1B1B72" stroke="#263238" stroke-linecap="round" stroke-linejoin="round"/>
<path d="M476.23 273.86C476.454 283.957 470.947 292.986 462.106 298.999V323.519L444.516 305.911C441.672 306.419 438.788 306.67 435.9 306.66C413.234 306.66 394.52 291.974 394.127 273.86C393.734 255.746 411.773 241.079 434.457 241.079C457.142 241.079 475.93 255.84 476.23 273.86Z" fill="white" stroke="#263238" stroke-linecap="round" stroke-linejoin="round"/>
<path d="M417.692 273.86C417.696 274.913 417.387 275.943 416.805 276.821C416.222 277.698 415.393 278.383 414.421 278.788C413.449 279.194 412.379 279.302 411.346 279.099C410.313 278.896 409.363 278.39 408.617 277.647C407.871 276.904 407.363 275.956 407.156 274.924C406.949 273.891 407.053 272.821 407.455 271.847C407.857 270.874 408.539 270.042 409.415 269.457C410.29 268.871 411.319 268.559 412.372 268.559C413.78 268.559 415.13 269.117 416.127 270.11C417.124 271.104 417.687 272.452 417.692 273.86V273.86Z" fill="#1B1B72" stroke="#263238" stroke-linecap="round" stroke-linejoin="round"/>
<path d="M440.451 273.86C440.455 274.913 440.146 275.943 439.564 276.821C438.982 277.698 438.152 278.383 437.18 278.788C436.209 279.194 435.138 279.302 434.105 279.099C433.072 278.896 432.122 278.39 431.376 277.647C430.631 276.904 430.122 275.956 429.915 274.924C429.708 273.891 429.813 272.821 430.215 271.847C430.617 270.874 431.299 270.042 432.174 269.457C433.049 268.871 434.079 268.559 435.132 268.559C436.539 268.559 437.89 269.117 438.887 270.11C439.884 271.104 440.446 272.452 440.451 273.86V273.86Z" fill="#1B1B72" stroke="#263238" stroke-linecap="round" stroke-linejoin="round"/>
<path d="M463.211 273.86C463.215 274.913 462.906 275.943 462.323 276.821C461.741 277.698 460.912 278.383 459.94 278.788C458.968 279.194 457.898 279.302 456.865 279.099C455.831 278.896 454.882 278.39 454.136 277.647C453.39 276.904 452.882 275.956 452.675 274.924C452.468 273.891 452.572 272.821 452.974 271.847C453.376 270.874 454.058 270.042 454.933 269.457C455.809 268.871 456.838 268.559 457.891 268.559C459.299 268.559 460.649 269.117 461.646 270.11C462.643 271.104 463.206 272.452 463.211 273.86V273.86Z" fill="#1B1B72" stroke="#263238" stroke-linecap="round" stroke-linejoin="round"/>
<path d="M205.814 348.62C205.149 349.857 204.191 350.912 203.023 351.692C194.381 358.585 185.54 365.198 176.498 371.529C173.183 373.852 169.736 376.249 166.533 378.853C147.276 391.741 159.04 394.888 147.276 422.162C144.504 428.68 145.01 460.619 145.01 460.619H144.054C141.799 458.393 139.403 456.316 136.88 454.4V454.4C136.531 454.165 136.169 453.952 135.794 453.763V453.763C135.442 453.581 135.062 453.461 134.67 453.407C132.796 453.294 125.659 454.156 118.448 453.688L116.574 453.538C115.525 453.425 114.495 453.294 113.465 453.107C112.435 452.92 111.442 452.714 110.487 452.451C103.643 450.257 96.9314 447.668 90.3871 444.696V444.696L87.1277 443.291L85.5167 442.598L84.0556 441.961L83.0066 441.512L81.9951 441.081C80.2905 440.369 78.6983 439.714 77.2372 439.208C76.5674 438.968 75.8859 438.761 75.1954 438.59C75.1954 440.126 74.9519 441.699 74.7458 443.235C73.8467 450.559 71.8423 457.322 68.2645 458.221C68.1908 458.24 68.1135 458.24 68.0397 458.221C67.7246 458.28 67.405 458.311 67.0844 458.315H66.8034C66.0108 458.299 65.2262 458.153 64.4806 457.884V457.884C61.2336 456.498 58.58 454.01 56.9878 450.859C56.2763 449.531 55.879 448.057 55.8264 446.551C55.8264 441.1 54.3091 408.937 54.3091 399.571C54.3091 390.205 56.1824 373.814 60.8466 367.726C62.6695 365.145 64.9716 362.938 67.6276 361.226C71.0453 358.377 74.965 356.192 79.1853 354.783C84.168 353.153 95.3136 348.994 103.087 346.053L91.3424 350.587C94.3208 355.682 100.708 363.699 112.229 364.729C123.056 365.647 129.762 355.85 133.19 348.695C133.489 348.807 152.334 345.229 156.698 345.435C170.916 346.053 182.511 338.355 187.756 335.301C189.338 334.356 191.114 333.78 192.949 333.618C194.785 333.455 196.634 333.709 198.358 334.361C200.081 335.013 201.636 336.046 202.904 337.383C204.172 338.72 205.122 340.327 205.683 342.082V342.251C206.502 344.287 206.549 346.552 205.814 348.62V348.62Z" fill="#1B1B72" stroke="#263238" stroke-linecap="round" stroke-linejoin="round"/>
<path d="M132.984 348.807L132.122 348.507L132.984 348.807Z" fill="white" stroke="#263238" stroke-linecap="round" stroke-linejoin="round"/>
<path d="M148.962 468.861C148.971 468.935 148.971 469.011 148.962 469.085C148.886 469.266 148.77 469.428 148.623 469.558C148.477 469.689 148.302 469.784 148.114 469.838C147.925 469.892 147.726 469.903 147.533 469.87C147.339 469.837 147.156 469.761 146.995 469.647C146.134 469.16 144.804 466.032 144.804 466.032L143.324 464.496L142.35 463.466C142.5 463.84 143.68 466.706 143.062 468.036C143.03 468.128 142.979 468.211 142.912 468.28C142.498 468.833 141.961 469.282 141.343 469.591C140.725 469.9 140.043 470.06 139.353 470.059V470.059C138.547 470.059 136.187 470.34 134.126 470.472H133.902C133.278 470.506 132.652 470.506 132.028 470.472C130.365 470.258 128.761 469.717 127.308 468.879C124.013 468.395 120.766 467.624 117.605 466.575L117.043 466.276L116.537 465.976C116.204 465.775 115.896 465.536 115.619 465.264C114.478 464.313 113.508 463.172 112.753 461.892V461.892C112.753 461.892 105.148 461.574 94.939 460.787C91.1926 460.506 87.1464 460.15 82.9505 459.738C76.5066 459.083 71.1867 459.12 67.0095 458.539H66.7098C65.8856 458.427 65.1176 458.277 64.387 458.108C62.6042 457.76 60.9556 456.916 59.6304 455.674C58.3052 454.431 57.3568 452.841 56.8942 451.084C56.6489 450.252 56.4488 449.408 56.2948 448.555L59.5541 442.935C61.2529 441.573 63.1474 440.474 65.1738 439.676C68.3176 438.361 71.789 438.04 75.1205 438.758C75.811 438.93 76.4925 439.136 77.1623 439.376C78.6234 439.938 80.2156 440.594 81.9202 441.25L82.9505 441.68L83.9994 442.13L85.4606 442.767C93.7963 446.214 103.743 450.653 110.393 452.526C112.39 453.049 114.426 453.413 116.481 453.613L118.354 453.763C125.566 454.231 132.684 453.369 134.576 453.482C136.468 453.594 141.095 457.996 144.054 460.712C144.86 461.461 145.572 462.08 146.059 462.454L146.283 462.642L146.452 462.791C147.525 463.892 148.276 465.266 148.625 466.763C148.625 466.763 148.625 466.763 148.625 466.763C148.772 467.264 148.873 467.778 148.925 468.299C148.959 468.484 148.971 468.672 148.962 468.861V468.861Z" fill="white" stroke="#263238" stroke-linecap="round" stroke-linejoin="round"/>
<path d="M148.962 468.861C148.971 468.935 148.971 469.011 148.962 469.085C148.884 469.265 148.767 469.425 148.619 469.553C148.472 469.681 148.297 469.775 148.109 469.827C147.92 469.879 147.722 469.888 147.529 469.854C147.337 469.82 147.154 469.743 146.995 469.629C146.069 468.554 145.328 467.332 144.804 466.013L143.324 464.496L142.35 463.485C142.481 463.784 143.698 466.706 143.08 468.055C143.049 468.146 142.998 468.23 142.93 468.299C142.723 468.575 142.484 468.826 142.219 469.048C141.411 469.697 140.407 470.053 139.371 470.059V470.059C138.547 470.059 136.206 470.322 134.164 470.472H133.902C133.278 470.506 132.652 470.506 132.028 470.472C130.375 470.251 128.78 469.717 127.327 468.898C124.031 468.405 120.785 467.628 117.623 466.575L117.08 466.313L116.574 466.013C116.251 465.8 115.944 465.562 115.657 465.302C114.498 464.342 113.516 463.189 112.753 461.892V461.892C112.753 461.892 105.373 461.574 95.3698 460.806C91.6234 460.525 87.2963 460.15 82.9504 459.719C77.0311 459.139 72.142 458.97 68.1896 458.352L66.972 458.127L65.5671 457.809C65.2432 455.513 65.4811 453.174 66.2602 450.99C66.9863 449.148 68.1124 447.49 69.5571 446.136C71.0019 444.782 72.7293 443.766 74.6147 443.16V443.16C76.9545 442.3 79.3518 441.605 81.789 441.081L82.8006 441.512L83.8496 441.961L85.3107 442.598C93.7963 446.251 103.631 450.672 110.299 452.489C112.295 453.015 114.332 453.372 116.387 453.557L118.26 453.706C125.472 454.193 132.59 453.332 134.482 453.444C136.374 453.557 140.982 457.94 143.848 460.656C144.499 461.277 145.18 461.865 145.89 462.417L146.115 462.585L146.283 462.735C147.377 463.821 148.132 465.2 148.456 466.706C148.604 467.208 148.704 467.722 148.756 468.243C148.852 468.438 148.921 468.646 148.962 468.861V468.861Z" fill="white" stroke="#263238" stroke-linecap="round" stroke-linejoin="round"/>
<path d="M126.54 463.878C126.54 463.878 130.792 466.088 132.478 466.856C134.164 467.624 134.014 470.715 134.014 470.715" fill="white"/>
<path d="M126.54 463.878C126.54 463.878 130.792 466.088 132.478 466.856C134.164 467.624 134.014 470.715 134.014 470.715" stroke="#263238" stroke-linecap="round" stroke-linejoin="round"/>
<path d="M131.092 460.881C133.767 462.79 136.343 464.834 138.809 467.006C139.17 467.429 139.405 467.945 139.487 468.494C139.57 469.044 139.497 469.605 139.278 470.116" fill="white"/>
<path d="M131.092 460.881C133.767 462.79 136.343 464.834 138.809 467.006C139.17 467.429 139.405 467.945 139.487 468.494C139.57 469.044 139.497 469.605 139.278 470.116" stroke="#263238" stroke-linecap="round" stroke-linejoin="round"/>
<path d="M142.294 463.447C140.077 461.072 137.732 458.821 135.269 456.704Z" fill="white"/>
<path d="M142.294 463.447C140.077 461.072 137.732 458.821 135.269 456.704" stroke="#263238" stroke-linecap="round" stroke-linejoin="round"/>
<path d="M132.965 348.844C129.575 355.981 122.85 365.703 112.023 364.86C100.559 363.886 94.1147 355.813 91.1364 350.699C95.2574 349.125 99.4346 347.514 102.863 346.166C102.863 342.682 102.75 338.504 102.376 334.365C102.376 333.465 102.188 332.491 102.095 331.648C102.001 330.805 101.889 330.206 101.776 329.513H123.562C123.562 329.513 123.43 330.375 123.262 331.817C123.131 333.109 122.962 334.833 122.831 336.781C122.662 339.366 122.55 342.401 122.625 345.267C123.674 345.623 124.742 346.016 125.809 346.428L127.87 347.14C128.694 347.44 129.5 347.702 130.361 347.983L132.234 348.545C132.484 348.629 132.728 348.729 132.965 348.844V348.844Z" fill="white" stroke="#263238" stroke-linecap="round" stroke-linejoin="round"/>
<path d="M102.095 331.573C102.095 331.573 106.159 342.138 112.06 343.937C117.961 345.735 123.299 331.817 123.299 331.817C123.299 331.817 114.982 340.696 111.891 339.31C108.801 337.924 102.132 331.648 102.132 331.648" fill="#263238"/>
<path d="M98.5917 273.223C93.0867 278.179 88.7218 284.269 85.7977 291.075C83.119 296.694 80.8525 303.157 82.913 309.039C84.146 311.959 85.8905 314.636 88.0643 316.944C92.1104 321.795 97.7862 335.339 101.832 340.19C102.095 331.555 94.864 317.599 95.632 310.35C96.5623 304.75 98.4036 299.339 101.083 294.334C103.808 287.771 107.372 281.587 111.685 275.939C114.139 272.98 122.025 267.716 114.064 267.079C108.782 266.648 102.582 269.945 98.5917 273.223Z" fill="#263238" stroke="#263238" stroke-linecap="round" stroke-linejoin="round"/>
<path d="M93.4966 302.67C93.4966 302.67 90.7055 297.256 87.7646 302.389C85.6479 306.135 88.7012 312.036 90.0124 314.228C90.4476 314.852 91.0369 315.352 91.723 315.68C92.4092 316.009 93.1686 316.153 93.9274 316.101L93.4966 302.67Z" fill="white" stroke="#263238" stroke-linecap="round" stroke-linejoin="round"/>
<path d="M130.174 322.226C128.384 325.764 126.052 329 123.262 331.817L121.576 333.559C118.092 337.006 114.327 339.741 111.854 339.179C109.7 338.748 106.89 336.538 104.136 333.709C103.443 333.016 102.769 332.267 102.095 331.517C99.0965 328.237 96.5225 324.594 94.4332 320.672C93.8528 319.201 93.4808 317.656 93.328 316.082C92.8553 311.39 92.6926 306.672 92.841 301.958C92.841 300.291 92.841 298.961 92.841 298.212C92.841 294.952 105.054 283.62 105.054 283.62C105.383 283.499 105.737 283.46 106.085 283.507C108.185 283.89 110.21 284.611 112.079 285.643C119.478 289.239 129.799 296.376 130.549 299.092C131.691 303.045 131.26 318.705 130.174 322.226Z" fill="white" stroke="#263238" stroke-linecap="round" stroke-linejoin="round"/>
<path d="M105.916 307.203C105.916 308.514 105.429 309.582 104.886 309.582C104.342 309.582 103.799 308.552 103.799 307.203C103.799 305.854 104.286 304.787 104.886 304.787C105.485 304.787 105.916 305.892 105.916 307.203Z" fill="#263238"/>
<path d="M119.871 304.805C120.471 304.805 120.958 305.873 120.958 307.203C120.958 308.533 120.471 309.582 119.871 309.582C119.272 309.582 118.785 308.514 118.785 307.203C118.785 305.892 119.272 304.805 119.871 304.805Z" fill="#263238"/>
<path d="M98.9476 301.303C98.9476 301.303 100.821 297.556 107.452 298.699" stroke="#263238" stroke-linecap="round" stroke-linejoin="round"/>
<path d="M126.034 301.303C126.034 301.303 124.161 297.556 117.53 298.699" stroke="#263238" stroke-linecap="round" stroke-linejoin="round"/>
<path d="M113.765 316.363C114.438 316.321 115.081 316.063 115.597 315.628C116.113 315.193 116.475 314.604 116.631 313.947C116.631 313.947 112.997 308.327 114.102 302.82" stroke="#263238" stroke-linecap="round" stroke-linejoin="round"/>
<path d="M91.1363 289.558C89.6271 291.605 88.4861 293.9 87.7646 296.339" stroke="white" stroke-linecap="round" stroke-linejoin="round"/>
<path d="M106.796 274.572C106.796 274.572 104.717 278.019 95.5571 285.043C94.9668 285.47 94.4037 285.933 93.8712 286.429" stroke="white" stroke-linecap="round" stroke-linejoin="round"/>
<path d="M77.4245 384.398C76.1757 402.206 74.9269 420.026 73.6781 437.859V436.492" fill="#263238"/>
<path d="M77.4245 384.398C76.1757 402.206 74.9269 420.026 73.6781 437.859V436.492" stroke="#263238" stroke-linecap="round" stroke-linejoin="round"/>
<path d="M195.755 325.598C197.448 324.936 199.278 324.7 201.083 324.909C202.889 325.118 204.616 325.766 206.114 326.797C209.101 328.913 211.275 331.986 212.276 335.507C213.471 339.014 213.351 342.835 211.939 346.259C211.209 347.948 210.034 349.406 208.539 350.478C207.045 351.55 205.287 352.196 203.454 352.347C200.721 352.313 198.081 351.355 195.961 349.631C188.955 344.386 185.452 330.038 195.755 325.598Z" fill="white" stroke="#263238" stroke-linecap="round" stroke-linejoin="round"/>
<path d="M211.265 265.787C211.265 266.011 211.265 267.491 211.396 267.753C212.052 270.638 213.438 277.85 209.935 279.311C211.265 284.05 214.524 315.014 214.093 330.806C213.981 335.526 213.157 341.127 208.923 343.15C201.787 346.54 195.006 338.28 195.811 331.817C197.066 322.994 196.635 314.003 197.684 305.086C198.827 295.833 200.925 286.354 198.621 277.307C198.059 276.689 194.462 269.552 193.282 267.585C192.753 266.744 192.337 265.837 192.046 264.887C191.585 261.655 191.359 258.393 191.372 255.128C192.439 253.105 193.825 254.978 194.556 256.308C195.152 257.93 195.357 259.669 195.155 261.385C195.086 261.804 195.145 262.235 195.324 262.621C195.481 262.841 195.694 263.017 195.941 263.128C196.187 263.24 196.459 263.285 196.729 263.258C199.033 262.921 198.939 260.991 198.902 259.511C198.902 254.547 198.902 249.583 198.902 244.657C198.902 243.833 199.164 241.604 199.951 241.529C200.738 241.454 201.918 242.091 202.03 244.732C202.161 247.71 202.161 256.889 202.161 256.889C202.235 256.964 202.328 257.019 202.429 257.049C202.531 257.079 202.639 257.081 202.742 257.057C202.929 257.057 203.004 256.72 203.079 256.533C204.184 251.925 205.308 247.317 206.413 242.709C206.544 242.165 207.35 241.042 207.931 241.042C209.317 241.042 209.354 242.653 209.429 243.121C209.916 245.593 206.451 255.784 205.87 258.106C205.87 258.519 205.87 259.137 206.301 259.024L211.733 248.066C211.985 247.426 212.381 246.853 212.892 246.391C213.402 245.93 214.012 245.593 214.674 245.406C214.766 245.377 214.864 245.377 214.955 245.406C215.053 245.463 215.131 245.548 215.18 245.65C215.704 246.586 215.18 247.879 214.88 248.909C214.581 249.939 210.516 257.507 209.073 260.56C208.867 260.991 208.53 261.965 208.942 262.434C209.354 262.902 210.104 262.003 210.403 261.385C211.321 259.511 212.183 257.751 213.026 255.915C213.288 255.372 213.681 254.604 214.3 254.735C217.952 255.521 212.764 263.183 211.265 265.787Z" fill="white" stroke="#263238" stroke-linecap="round" stroke-linejoin="round"/>
<path d="M201.187 264.176C203.073 265.669 204.71 267.452 206.039 269.458C206.694 270.466 207.132 271.6 207.325 272.787C207.519 273.973 207.463 275.187 207.163 276.351C207.072 276.655 206.953 276.95 206.807 277.232" fill="white"/>
<path d="M201.187 264.176C203.073 265.669 204.71 267.452 206.039 269.458C206.694 270.466 207.132 271.6 207.325 272.787C207.519 273.973 207.463 275.187 207.163 276.351C207.072 276.655 206.953 276.95 206.807 277.232" stroke="#263238" stroke-linecap="round" stroke-linejoin="round"/>
<path d="M148.419 381.195C150.401 385.192 151.735 389.479 152.371 393.895C152.915 398.316 153.083 401.781 150.067 414.201" stroke="#263238" stroke-linecap="round" stroke-linejoin="round"/>
<path d="M106.141 280.81C105.884 281.575 105.82 282.392 105.953 283.189C106.309 284.191 106.962 285.06 107.827 285.68C113.814 290.927 120.511 295.303 127.72 298.68C128.624 298.915 129.408 299.48 129.917 300.263C130.427 301.046 130.625 301.992 130.474 302.914V317.393C130.566 318.887 130.42 320.385 130.043 321.833C128.994 325.205 126.671 327.921 124.985 331.03C123.271 333.979 122.403 337.343 122.475 340.752C122.007 337.174 134.52 330.244 137.91 316.157C138.379 314.171 148.119 302.352 142.275 288.471C136.655 275.153 127.814 269.421 124.835 268.728C122.814 268.137 120.68 268.036 118.612 268.433C116.543 268.83 114.599 269.715 112.94 271.013C109.667 273.451 107.28 276.891 106.141 280.81V280.81Z" fill="#263238" stroke="#263238" stroke-linecap="round" stroke-linejoin="round"/>
<path d="M118.41 321.402C117.342 321.627 116.256 321.833 115.17 321.964C111.423 322.432 107.414 321.852 104.961 319.117C105.148 321.571 106.834 330.843 111.873 331.105C116.912 331.367 118.41 321.402 118.41 321.402Z" stroke="#263238" stroke-linecap="round" stroke-linejoin="round"/>
<path d="M113.54 275.153C115.7 280.058 119.143 284.289 123.505 287.403C126.671 289.67 130.286 291.3 133.19 293.885C136.936 297.313 139.39 302.745 137.948 307.671" stroke="white" stroke-linecap="round" stroke-linejoin="round"/>
<path d="M152.69 350.83C149.081 353.726 146.705 357.883 146.04 362.463C145.394 366.42 145.881 370.478 147.445 374.17" stroke="#263238" stroke-linecap="round" stroke-linejoin="round"/>
<path d="M82.913 381.738C82.6133 386.646 79.5599 390.898 76.6003 394.85Z" fill="#263238"/>
<path d="M82.913 381.738C82.6133 386.646 79.5599 390.898 76.6003 394.85" stroke="#263238" stroke-linecap="round" stroke-linejoin="round"/>
<path d="M75.6075 419.258C77.0953 421.749 79.0867 423.902 81.4542 425.579C83.8218 427.257 86.5133 428.421 89.3568 428.999" stroke="#263238" stroke-linecap="round" stroke-linejoin="round"/>
<path d="M147.276 422.18C147.276 422.18 142.237 429.673 125.116 431.247" stroke="#263238" stroke-linecap="round" stroke-linejoin="round"/>
<path d="M648.827 356.525C648.827 356.525 583.546 376.755 571.257 360.777L572.924 279.274H582.834L594.485 336.687L647.984 326.89C647.984 326.89 654.84 348.133 648.827 356.525Z" fill="white"/>
<path d="M621.328 359.372C617.585 360.86 614.012 362.744 610.669 364.991C615.09 366.396 619.811 364.617 624.232 363.212C630.07 361.419 636.021 360.017 642.046 359.016C642.327 357.349 640.172 353.546 639.33 352.066C637.794 349.481 637.456 349.257 634.871 350.53C630.17 352.891 626.161 356.993 621.328 359.372Z" fill="#1B1B72"/>
<path d="M648.827 356.525C648.827 356.525 583.546 376.755 571.257 360.777L572.924 279.274H582.834L594.485 336.687L647.984 326.89C647.984 326.89 654.84 348.133 648.827 356.525Z" stroke="#263238" stroke-linecap="round" stroke-linejoin="round"/>
<path d="M642.42 358.66L653.884 429.242C653.585 474.986 675.407 468.111 690.562 467.98C708.076 467.83 734.657 450.466 721.619 423.435L726.64 325.598L696.125 323.275C686.066 322.488 644.855 323.781 641.577 329.045C633.073 342.7 642.42 358.66 642.42 358.66Z" fill="white"/>
<path d="M644.219 364.486C651.027 390.242 667.355 412.455 689.906 426.639C687.465 426.252 685.08 425.567 682.807 424.597C680.519 423.612 677.956 423.472 675.576 424.203C675.001 424.411 674.473 424.729 674.021 425.141C673.57 425.553 673.204 426.049 672.945 426.603C672.685 427.156 672.538 427.755 672.51 428.366C672.483 428.976 672.576 429.586 672.785 430.16C673.331 431.038 674.076 431.776 674.958 432.314C678.677 434.929 682.744 437.009 687.04 438.496C683.272 438.109 679.466 438.401 675.801 439.358C675.126 442.617 678.76 444.977 681.626 446.57C686.199 449.265 690.115 452.945 693.09 457.34C683.032 457.362 672.983 457.937 662.988 459.064C661.67 459.359 660.293 459.228 659.054 458.689C657.758 457.724 656.885 456.294 656.619 454.699C654.392 446.906 653.097 438.877 652.76 430.778C652.573 426.227 652.76 421.637 652.161 417.123C651.678 413.564 651.015 410.031 650.175 406.539C647.266 393.027 645.037 379.409 643.488 365.685C642.795 365.741 644.219 364.486 644.219 364.486Z" fill="#1B1B72"/>
<path d="M721.601 358.866C719.073 358.055 716.717 356.785 714.651 355.12C715.232 357.929 719.428 362.781 721.882 364.28C722.387 364.598 723.118 364.86 723.568 364.429C724.017 363.999 724.317 362.893 724.766 362.556L721.601 358.866Z" fill="#1B1B72"/>
<path d="M642.42 358.66L653.884 429.242C653.585 474.986 675.407 468.111 690.562 467.98C708.076 467.83 734.657 450.466 721.619 423.435L726.64 325.598L696.125 323.275C686.066 322.488 644.855 323.781 641.577 329.045C633.073 342.7 642.42 358.66 642.42 358.66Z" stroke="#263238" stroke-linecap="round" stroke-linejoin="round"/>
<path d="M664.73 321.833C661.447 327.845 659.866 334.639 660.16 341.483C660.156 342.08 660.27 342.672 660.497 343.225C661.34 344.892 663.644 344.892 665.498 345.098C672.71 346.016 677.187 353.621 683.987 356.169C684.225 356.316 684.491 356.413 684.767 356.455C685.044 356.497 685.327 356.482 685.598 356.412C685.869 356.342 686.123 356.218 686.345 356.048C686.567 355.877 686.753 355.663 686.89 355.419C689.85 351.673 690.899 346.409 694.945 343.993C696.706 342.944 698.935 342.513 700.152 340.865C701.539 338.991 700.92 336.294 700.246 334.009C699.141 330.262 697.905 326.366 695.039 323.762C691.985 321.379 688.234 320.063 684.361 320.016C678.693 319.552 672.987 320.084 667.502 321.589C667.577 322.301 664.73 321.833 664.73 321.833Z" fill="#1B1B72" stroke="#263238" stroke-linecap="round" stroke-linejoin="round"/>
<path d="M755.393 369.731C750.815 363.064 747.442 355.646 745.428 347.814C744.694 343.89 743.552 340.054 742.019 336.369C740.573 333.522 738.485 331.05 735.92 329.149C733.355 327.247 730.383 325.967 727.239 325.411C725.897 325.115 724.501 325.18 723.193 325.598C720.477 326.628 719.278 329.756 718.735 332.604C717.559 338.719 717.906 345.03 719.746 350.98C721.001 355.026 736.081 384.36 745.971 395.731C745.109 389.999 751.703 370.836 755.393 369.731Z" fill="white"/>
<path d="M725.815 363.98L735.069 381.419C736.399 383.911 737.898 386.571 740.483 387.657C738.856 381.895 737.931 375.958 737.729 369.974C737.831 366.967 737.483 363.962 736.699 361.058C736.324 361.376 735.931 360.027 735.931 360.027C735.519 360.795 734.432 360.814 733.589 360.646C727.539 359.372 723.38 353.977 719.784 348.957C719.316 350.639 719.241 352.405 719.566 354.121C719.891 355.836 720.606 357.453 721.657 358.847C721.657 358.847 725.516 363.399 725.815 363.98Z" fill="#1B1B72"/>
<path d="M755.393 369.731C750.815 363.064 747.442 355.646 745.428 347.814C744.694 343.89 743.552 340.054 742.019 336.369C740.573 333.522 738.485 331.05 735.92 329.149C733.355 327.247 730.383 325.967 727.239 325.411C725.897 325.115 724.501 325.18 723.193 325.598C720.477 326.628 719.278 329.756 718.735 332.604C717.559 338.719 717.906 345.03 719.746 350.98C721.001 355.026 736.081 384.36 745.971 395.731C745.109 389.999 751.703 370.836 755.393 369.731Z" stroke="#263238" stroke-linecap="round" stroke-linejoin="round"/>
<path d="M742.393 390.71C732.315 371.398 737.186 326.89 736.886 319.735L750.186 319.023C751.516 319.023 757.679 356.974 761.875 372.728C765.621 387.076 762.024 401.594 755.393 401.594C749.886 401.594 744.51 394.775 742.393 390.71Z" fill="white" stroke="#263238" stroke-linecap="round" stroke-linejoin="round"/>
<path d="M622.302 340.565C631.668 326.89 650.044 325.804 650.044 325.804" stroke="#263238" stroke-linecap="round" stroke-linejoin="round"/>
<path d="M586.168 348.226C589.001 345.624 591.221 342.425 592.668 338.86Z" fill="white"/>
<path d="M586.168 348.226C589.001 345.624 591.221 342.425 592.668 338.86" stroke="#263238" stroke-linecap="round" stroke-linejoin="round"/>
<path d="M655.758 412.852C661.096 421.6 695.676 430.947 709.462 428.943" stroke="#263238" stroke-linecap="round" stroke-linejoin="round"/>
<path d="M665.536 437.541C675.496 439.254 685.706 438.865 695.507 436.398" stroke="#263238" stroke-linecap="round" stroke-linejoin="round"/>
<path d="M711.41 352.666L718.004 361.601C718.903 362.819 720.158 364.186 721.638 363.849" stroke="#263238" stroke-linecap="round" stroke-linejoin="round"/>
<path d="M760.413 691.603C759.833 693.982 759.645 696.811 761.35 698.59C763.055 700.37 765.527 700.333 767.831 700.295L775.755 700.145C778.811 700.298 781.865 699.819 784.728 698.74C786.159 698.184 787.385 697.201 788.24 695.924C789.094 694.648 789.536 693.139 789.504 691.603C789.309 690.415 788.93 689.265 788.38 688.194C787.669 686.658 786.957 685.103 786.264 683.567C777.516 664.292 764.16 676.018 760.413 691.603Z" fill="white" stroke="#263238" stroke-linecap="round" stroke-linejoin="round"/>
<path d="M749.249 668.881C749.526 677.729 748.785 686.578 747.039 695.256C746.627 697.223 747.039 700.201 748.912 700.014C749.647 699.901 750.314 699.521 750.785 698.946C757.67 692.155 762.595 683.632 765.04 674.276C765.408 673.304 765.579 672.269 765.544 671.23C765.509 670.192 765.267 669.17 764.834 668.226C764.321 667.467 763.688 666.797 762.961 666.24C756.611 661.164 748.668 656.125 749.249 668.881Z" fill="white" stroke="#263238" stroke-linecap="round" stroke-linejoin="round"/>
<path d="M727.501 442.467C727.501 442.467 737.373 459.626 739.49 463.616C741.606 467.606 786.32 526.368 794.899 569.152C796.51 577.282 763.523 668.207 763.523 668.207L756.03 663.974C756.03 663.974 761.238 581.047 759.964 574.153C758.69 567.26 725.778 516.384 725.778 516.384C725.778 516.384 707.402 502.878 699.834 487.181L727.501 442.467Z" fill="#263238"/>
<path d="M728.569 485.457C728.569 485.457 722.949 497.97 722.949 499.768C722.949 501.567 753.857 599.236 762.942 621.826C768.687 636.375 773.751 651.261 778.134 666.484C778.134 666.484 781.656 671.11 778.996 675.85C776.336 680.589 765.752 683.698 763.579 679.465C761.406 675.231 739.996 653.24 730.967 631.361C721.938 609.482 709.238 572.917 702.007 559.299C692.536 541.897 684.129 523.938 676.831 505.519C667.746 482.273 658.455 457.209 658.455 457.209C662.229 457.549 666.02 457.656 669.807 457.528C678.724 457.224 687.553 455.66 696.031 452.882C715.775 446.251 724.317 433.551 724.317 433.551C724.317 433.551 729.206 446.794 730.48 449.361L728.569 485.457Z" fill="#263238"/>
<path d="M791.602 577.525C789.667 580.84 787.065 583.717 783.96 585.973" stroke="white" stroke-linecap="round" stroke-linejoin="round"/>
<path d="M794.019 572.074C793.737 572.987 793.399 573.882 793.007 574.753" stroke="white" stroke-linecap="round" stroke-linejoin="round"/>
<path d="M710.717 456.273C715.7 464.852 720.364 477.196 719.615 487.087C719.213 488.883 718.584 490.62 717.742 492.257" stroke="white" stroke-linecap="round" stroke-linejoin="round"/>
<path d="M680.559 465.807C681.102 470.584 681.832 478.526 680.784 483.209C679.897 487.999 677.149 492.243 673.141 495.01" stroke="white" stroke-linecap="round" stroke-linejoin="round"/>
<path d="M723.043 447.731C724.131 449.087 725.015 450.595 725.666 452.208C726.934 454.524 728.678 456.546 730.783 458.141C732.888 459.735 735.306 460.867 737.879 461.461" stroke="white" stroke-linecap="round" stroke-linejoin="round"/>
<path d="M707.139 466.875C713.752 481.336 718.81 495.835 729.075 520.411" stroke="white" stroke-linecap="round" stroke-linejoin="round"/>
<path d="M703.618 459.476C704.18 460.6 704.723 461.724 705.266 462.848" stroke="white" stroke-linecap="round" stroke-linejoin="round"/>
<path d="M758.653 570.107C761.684 575.948 765.538 581.323 770.098 586.067" stroke="white" stroke-linecap="round" stroke-linejoin="round"/>
<path d="M761.781 575.502C763.765 584.668 767.389 593.4 772.477 601.277" stroke="white" stroke-linecap="round" stroke-linejoin="round"/>
<path d="M715.213 575.97C700.621 544.838 685.054 513.949 665.929 466.875" stroke="white" stroke-linecap="round" stroke-linejoin="round"/>
<path d="M718.51 585.018C718.154 583.932 717.779 582.845 717.386 581.74" stroke="white" stroke-linecap="round" stroke-linejoin="round"/>
<path d="M768.955 680.739C765.209 675.85 737.898 637.655 731.117 620.347C726.602 608.808 723.193 600.659 719.877 589.158" stroke="white" stroke-linecap="round" stroke-linejoin="round"/>
<path d="M758.653 607.234L771.634 645.391" stroke="white" stroke-linecap="round" stroke-linejoin="round"/>
<path d="M749.905 319.042L745.971 319.36C740.986 320.246 735.867 320.009 730.985 318.667C727.857 317.899 720.608 315.651 719.746 315.501C717.593 315.041 715.417 314.691 713.227 314.452C706.615 314.059 709.968 311.586 712.722 311.699C716.356 311.867 717.573 311.792 720.364 311.998C720.027 311.811 718.997 311.605 718.978 310.8C718.978 308.833 721.563 308.926 721.563 308.926C721.563 308.926 718.735 307.728 719.128 306.248C719.521 304.768 721.413 304.375 722.612 304.487C722.612 304.487 721.02 303.719 721.095 302.895C721.432 299.71 727.97 299.485 727.97 299.485C726.388 298.779 724.908 297.866 723.568 296.769C723.078 296.243 722.736 295.597 722.575 294.896C722.54 294.562 722.595 294.225 722.735 293.92C722.874 293.615 723.093 293.353 723.369 293.161C723.645 292.97 723.967 292.856 724.302 292.832C724.636 292.807 724.972 292.873 725.272 293.023C726.963 294.149 728.595 295.362 730.161 296.657C732.184 298.099 734.526 299.017 736.661 300.31C738.742 302.091 740.422 304.294 741.588 306.772C741.925 307.297 749.905 319.042 749.905 319.042Z" fill="white" stroke="#263238" stroke-linecap="round" stroke-linejoin="round"/>
<path d="M572.924 279.274V268.952C572.9 263.773 573.658 258.62 575.172 253.667C576.034 250.932 577.045 248.553 577.963 248.197C579.668 247.579 580.417 254.491 580.417 254.491C579.136 248.949 578.315 243.31 577.963 237.632C577.963 231.619 586.056 256.589 586.056 256.589L582.834 279.274H572.924Z" fill="white" stroke="#263238" stroke-linecap="round" stroke-linejoin="round"/>
<path d="M582.703 262.49C583.681 261.734 584.412 260.704 584.801 259.53Z" fill="white"/>
<path d="M582.703 262.49C583.681 261.734 584.412 260.704 584.801 259.53" stroke="#263238" stroke-linecap="round" stroke-linejoin="round"/>
<path d="M661.152 300.797C664.651 306.687 666.585 313.374 666.772 320.222C667.109 331.611 680.296 347.552 684.062 348.32C687.827 349.088 691.311 330.337 691.142 324.661C690.974 318.986 688.876 303.307 688.876 303.307C688.876 303.307 670.837 289.67 661.152 300.797Z" fill="white" stroke="#263238" stroke-linecap="round" stroke-linejoin="round"/>
<path d="M666.454 315.876C666.454 315.876 683.743 339.46 690.524 315.483C697.305 291.506 671.511 322.039 666.454 315.876Z" fill="#263238"/>
<path d="M695.638 298.924C694.72 312.916 688.333 320.784 680.971 322.17C674.246 323.406 664.412 316.55 659.504 306.379C659.129 306.135 653.154 301.996 651.73 300.984C650.987 300.464 650.38 299.771 649.963 298.965C649.545 298.16 649.329 297.265 649.332 296.357C649.38 295.486 649.687 294.65 650.215 293.955C650.742 293.261 651.466 292.74 652.292 292.461H652.461C653.304 292.277 654.182 292.342 654.989 292.648C653.753 287.872 652.742 283.02 651.974 278.131C652.33 266.892 656.057 257.713 668.046 256.814C680.034 255.915 690.056 262.621 690.524 267.454C690.861 271.2 692.079 281.109 693.165 291.356C693.465 294.016 695.844 295.777 695.638 298.924Z" fill="white" stroke="#263238" stroke-linecap="round" stroke-linejoin="round"/>
<path d="M690.524 282.739C690.524 282.739 682.807 279.199 684.118 290.7C684.38 292.967 688.595 296.32 688.595 296.32C688.595 296.32 687.508 299.71 685.504 299.71" fill="white"/>
<path d="M690.524 282.739C690.524 282.739 682.807 279.199 684.118 290.7C684.38 292.967 688.595 296.32 688.595 296.32C688.595 296.32 687.508 299.71 685.504 299.71" stroke="#263238" stroke-linecap="round" stroke-linejoin="round"/>
<path d="M675.613 286.673C675.613 286.673 671.68 284.275 668.982 285.755C667.575 286.367 666.378 287.376 665.536 288.658" fill="white"/>
<path d="M675.613 286.673C675.613 286.673 671.68 284.275 668.982 285.755C667.575 286.367 666.378 287.376 665.536 288.658" stroke="#263238" stroke-linecap="round" stroke-linejoin="round"/>
<path d="M673.366 293.304C673.665 294.69 673.366 295.926 672.56 296.095C671.755 296.264 670.968 295.252 670.687 293.866C670.406 292.48 670.687 291.243 671.511 291.075C672.335 290.906 673.085 291.899 673.366 293.304Z" fill="#263238"/>
<path d="M688.576 289.258C688.876 290.644 688.576 291.88 687.771 292.049C686.965 292.217 686.178 291.206 685.897 289.838C685.616 288.471 685.897 287.197 686.703 287.047C687.508 286.898 688.295 287.89 688.576 289.258Z" fill="#263238"/>
<path d="M651.074 263.614C649.704 264.956 648.754 266.667 648.34 268.54C647.218 272.501 646.893 276.645 647.385 280.732C647.877 284.819 649.176 288.767 651.206 292.349C652.454 292.195 653.72 292.246 654.952 292.498C656.263 292.836 657.949 295.083 658.567 296.245C659.109 297.483 659.42 298.81 659.485 300.16C659.185 296.601 658.904 293.06 658.605 289.501C658.404 288.078 658.467 286.63 658.792 285.23V285.23C659.71 282.308 658.698 275.415 658.961 269.252C666.734 278.749 678.03 277.063 681.776 276.745C687.396 276.276 692.191 270.526 691.892 266.423C691.592 262.321 690.487 251.756 671.961 250.67C667.879 250.235 663.764 251.094 660.197 253.124C659.066 253.869 658.106 254.845 657.379 255.988C656.653 257.131 656.177 258.415 655.982 259.755C655.72 261.478 656.376 261.628 655.064 262.471C653.753 263.314 652.367 262.508 651.074 263.614Z" fill="#263238" stroke="#263238" stroke-linecap="round" stroke-linejoin="round"/>
<path d="M675.613 306.304C675.613 306.304 678.367 309.338 684.118 307.334Z" fill="white"/>
<path d="M675.613 306.304C675.613 306.304 678.367 309.338 684.118 307.334" stroke="#263238" stroke-linecap="round" stroke-linejoin="round"/>
</svg>
