<svg width="1920" height="1080" viewBox="0 0 1920 1080" xmlns="http://www.w3.org/2000/svg"><rect width="1920" height="1080" fill="#df6688"/><path d="M 0,1080 C 0,1080 0,270 0,270 C 110.96650717703352,288.3349282296651 221.93301435406704,306.66985645933016 372,328 C 522.066985645933,349.33014354066984 711.2344497607655,373.65550239234443 838,362 C 964.7655502392345,350.34449760765557 1029.1291866028707,302.7081339712919 1136,285 C 1242.8708133971293,267.2918660287081 1392.248803827751,279.511961722488 1530,282 C 1667.751196172249,284.488038277512 1793.8755980861245,277.244019138756 1920,270 C 1920,270 1920,1080 1920,1080 Z" fill="#3d1053" opacity="0.15"/><path d="M 0,1080 C 0,1080 0,540 0,540 C 95.86602870813394,550.0382775119617 191.73205741626788,560.0765550239234 324,547 C 456.2679425837321,533.9234449760766 624.9377990430623,497.732057416268 768,500 C 911.0622009569377,502.267942583732 1028.5167464114832,542.9952153110048 1158,530 C 1287.4832535885168,517.0047846889952 1428.9952153110048,450.2870813397129 1558,443 C 1687.0047846889952,435.7129186602871 1803.5023923444976,487.85645933014354 1920,540 C 1920,540 1920,1080 1920,1080 Z" fill="#3d1053" opacity="0.3"/><path d="M 0,1080 C 0,1080 0,810 0,810 C 116.01913875598083,838.6698564593302 232.03827751196167,867.3397129186603 362,885 C 491.96172248803833,902.6602870813397 635.8660287081341,909.3110047846889 764,909 C 892.1339712918659,908.6889952153111 1004.4976076555024,901.4162679425839 1121,856 C 1237.5023923444976,810.5837320574161 1358.1435406698565,727.023923444976 1492,713 C 1625.8564593301435,698.976076555024 1772.9282296650717,754.488038277512 1920,810 C 1920,810 1920,1080 1920,1080 Z" fill="#3d1053" opacity="0.44999999999999996"/></svg>