<svg width="173" height="173" viewBox="0 0 173 173" fill="none" xmlns="http://www.w3.org/2000/svg">
<path d="M55.3699 79.7366C51.109 78.5098 46.8481 77.8874 42.7033 77.8874C36.3029 77.8874 30.9623 79.3501 26.8211 81.1412C30.8135 66.5255 40.4041 41.3065 59.5092 38.4664C61.2785 38.2033 62.7284 36.9239 63.2112 35.2018L67.3868 20.2667C67.7388 19.0037 67.5301 17.6517 66.8097 16.5556C66.0893 15.4595 64.9315 14.7282 63.634 14.5504C62.224 14.358 60.7867 14.26 59.3622 14.26C36.4299 14.26 13.7191 38.196 4.13568 72.4687C-1.48986 92.5757 -3.13942 122.805 10.7176 141.832C18.4717 152.479 29.7845 158.165 44.342 158.733C44.4019 158.735 44.4599 158.736 44.5198 158.736C62.4817 158.736 78.4092 146.64 83.2544 129.322C86.1489 118.969 84.8405 108.111 79.567 98.7421C74.3497 89.478 65.7572 82.7254 55.3699 79.7366Z" fill="#721B72" fill-opacity="0.3"/>
<path d="M167.806 98.7439C162.589 89.478 153.997 82.7254 143.609 79.7366C139.348 78.5098 135.087 77.8874 130.945 77.8874C124.544 77.8874 119.202 79.3501 115.061 81.1412C119.053 66.5255 128.643 41.3065 147.75 38.4664C149.52 38.2033 150.968 36.9239 151.452 35.2018L155.628 20.2667C155.98 19.0037 155.771 17.6517 155.051 16.5556C154.332 15.4595 153.174 14.7282 151.875 14.5504C150.467 14.358 149.03 14.26 147.603 14.26C124.671 14.26 101.96 38.196 92.3751 72.4687C86.7513 92.5757 85.1018 122.805 98.9606 141.836C106.713 152.481 118.028 158.168 132.583 158.735C132.643 158.736 132.701 158.738 132.763 158.738C150.723 158.738 166.652 146.641 171.497 129.324C174.388 118.971 173.078 108.111 167.806 98.7439Z" fill="#721B72" fill-opacity="0.3"/>
</svg>
