<svg width="1013" height="671" viewBox="0 0 1013 671" fill="none" xmlns="http://www.w3.org/2000/svg">
<g clip-path="url(#clip0_2698_110)">
<path d="M509.389 434.365C580.12 434.365 637.458 371.46 637.458 293.863C637.458 216.266 580.12 153.361 509.389 153.361C438.658 153.361 381.319 216.266 381.319 293.863C381.319 371.46 438.658 434.365 509.389 434.365Z" fill="#471B72" fill-opacity="0.24"/>
<path d="M719.307 144.91C750.152 144.91 775.157 117.478 775.157 83.6383C775.157 49.7989 750.152 22.3667 719.307 22.3667C688.462 22.3667 663.457 49.7989 663.457 83.6383C663.457 117.478 688.462 144.91 719.307 144.91Z" fill="#471B72" fill-opacity="0.24"/>
<path fill-rule="evenodd" clip-rule="evenodd" d="M1013 549.513C1013 616.608 963.421 671 902.263 671C841.105 671 791.527 616.608 791.527 549.513C791.527 482.418 841.105 428.026 902.263 428.026C963.421 428.026 1013 482.418 1013 549.513V549.513Z" fill="#471B72" fill-opacity="0.24"/>
<path d="M231.103 170.264C266.202 170.264 294.656 139.048 294.656 100.541C294.656 62.0341 266.202 30.8181 231.103 30.8181C196.003 30.8181 167.549 62.0341 167.549 100.541C167.549 139.048 196.003 170.264 231.103 170.264Z" fill="#471B72" fill-opacity="0.24"/>
<path d="M333.173 573.811C365.613 573.811 391.911 544.96 391.911 509.37C391.911 473.78 365.613 444.929 333.173 444.929C300.732 444.929 274.434 473.78 274.434 509.37C274.434 544.96 300.732 573.811 333.173 573.811Z" fill="#471B72" fill-opacity="0.24"/>
<path d="M54.8869 368.868C85.2001 368.868 109.774 341.909 109.774 308.653C109.774 275.397 85.2001 248.438 54.8869 248.438C24.5737 248.438 0 275.397 0 308.653C0 341.909 24.5737 368.868 54.8869 368.868Z" fill="#471B72" fill-opacity="0.24"/>
<path d="M634.569 647.759C671.796 647.759 701.974 614.651 701.974 573.811C701.974 532.97 671.796 499.862 634.569 499.862C597.343 499.862 567.165 532.97 567.165 573.811C567.165 614.651 597.343 647.759 634.569 647.759Z" fill="#471B72" fill-opacity="0.24"/>
</g>
<defs>
<clipPath id="clip0_2698_110">
<rect width="1013" height="671" fill="white"/>
</clipPath>
</defs>
</svg>
