<svg width="30" height="31" viewBox="0 0 30 31" fill="none" xmlns="http://www.w3.org/2000/svg">
<path fill-rule="evenodd" clip-rule="evenodd" d="M0 15.0633C0 6.77069 6.71573 0.0482178 15 0.0482178C23.2843 0.0482178 30 6.77069 30 15.0633C30 23.3559 23.2843 30.0783 15 30.0783C6.71573 30.0783 0 23.3559 0 15.0633ZM14.5508 12.2526L14.5822 12.7722L14.0576 12.7086C12.148 12.4647 10.4798 11.6377 9.06334 10.2486L8.37085 9.55944L8.19248 10.0684C7.81477 11.2029 8.05609 12.4011 8.843 13.2069C9.26269 13.6523 9.16826 13.7159 8.4443 13.4508C8.19248 13.366 7.97215 13.3024 7.95116 13.3342C7.87772 13.4084 8.12953 14.3733 8.32888 14.755C8.60168 15.2851 9.15777 15.8047 9.76631 16.1122L10.2804 16.3561L9.67188 16.3667C9.08432 16.3667 9.06334 16.3773 9.12629 16.5999C9.33613 17.2891 10.165 18.0208 11.0883 18.3389L11.7388 18.5615L11.1723 18.9008C10.3329 19.3886 9.34663 19.6642 8.36036 19.6855C7.88821 19.6961 7.5 19.7385 7.5 19.7703C7.5 19.8763 8.78005 20.4701 9.52499 20.7034C11.7598 21.3926 14.4144 21.0957 16.4079 19.9187C17.8243 19.0811 19.2408 17.4164 19.9018 15.8047C20.2585 14.9458 20.6152 13.3766 20.6152 12.6238C20.6152 12.136 20.6467 12.0724 21.2343 11.4892C21.5805 11.1499 21.9058 10.7788 21.9687 10.6728C22.0737 10.4713 22.0632 10.4713 21.5281 10.6516C20.6362 10.9697 20.5103 10.9272 20.951 10.4501C21.2762 10.1108 21.6645 9.49582 21.6645 9.31557C21.6645 9.28376 21.5071 9.33677 21.3287 9.4322C21.1398 9.53823 20.7202 9.69728 20.4054 9.79271L19.8388 9.97296L19.3247 9.62306C19.0414 9.4322 18.6427 9.22014 18.4329 9.15652C17.8978 9.00808 17.0794 9.02928 16.5967 9.19893C15.2852 9.67607 14.4563 10.906 14.5508 12.2526Z" fill="#9EA3B0"/>
</svg>
