<svg width="61" height="53" viewBox="0 0 61 53" fill="none" xmlns="http://www.w3.org/2000/svg">
<path d="M29.633 21.5522C31.1969 22.6122 31.1969 24.2904 29.633 25.262C28.0692 26.322 25.5932 26.322 24.1596 25.262L11.258 16.5175L9.43349 15.2809C7.86966 14.2209 7.86966 12.5427 9.43349 11.5711C10.9973 10.5111 13.4733 10.5111 14.9069 11.5711L23.2474 17.2242L29.633 21.5522Z" fill="#AE938D"/>
<path d="M28.7209 13.4262C30.2847 14.4861 30.2847 16.1643 28.7209 17.136C27.157 18.1959 24.681 18.1959 23.2475 17.136L14.9071 11.483L13.0825 10.2463C11.5187 9.18639 11.5187 7.50818 13.0825 6.53653C14.6464 5.47659 17.1224 5.47659 18.6862 6.53653L19.2074 6.88981L28.7209 13.4262Z" fill="#AE938D"/>
<path d="M29.633 28.9719C31.1969 30.0319 31.1969 31.7101 29.633 32.77C28.0692 33.83 25.5932 33.83 24.1596 32.77L18.2952 28.7953L7.60909 21.5523L5.78457 20.3157C4.22074 19.2558 4.22074 17.5776 5.78457 16.5176C7.3484 15.4577 9.82442 15.4577 11.258 16.5176L24.1596 25.2621L29.633 28.9719Z" fill="#AE938D"/>
<path d="M57.6516 26.322C59.4762 27.9119 60.7793 30.1201 60.7793 33.1233C60.7793 39.3063 50.3537 48.1392 50.3537 49.9057V51.6723H19.077V46.3726H26.8962C28.1993 46.3726 29.5026 45.4893 29.5026 45.4893L43.8378 36.6565C43.8378 36.6565 49.0505 33.1234 49.0505 32.24C49.0505 31.3568 49.0505 31.3568 47.7474 30.4734L41.2314 26.057C38.6249 24.2904 36.0187 23.4071 36.0187 21.6405C36.0187 20.2273 37.9734 17.4007 39.9282 18.1074C39.9282 18.1074 49.8325 21.9939 52.9601 23.4071C54.6542 24.2021 56.3485 25.0854 57.6516 26.322Z" fill="#AE938D"/>
<path d="M18.1651 28.7068C19.7289 29.7667 19.7289 31.4449 18.1651 32.4166C16.6012 33.4765 14.1252 33.4765 12.6917 32.4166L9.56401 30.2967L2.00539 25.1737C0.441562 24.1138 0.441562 22.4355 2.00539 21.4639C3.56922 20.404 6.04524 20.404 7.4788 21.4639L18.1651 28.7068Z" fill="#AE938D"/>
<path d="M18.165 28.707L24.0294 32.6818C25.5932 33.7417 28.0693 33.7417 29.5028 32.6818C31.0667 31.6218 31.0667 29.9436 29.5028 28.8837L24.0294 25.1739C25.5932 26.2338 28.0693 26.2338 29.5028 25.1739C31.0667 24.1139 31.0667 22.4357 29.5028 21.4641L22.9868 17.0476C24.5506 18.1075 27.0267 18.1075 28.4602 17.0476C30.0241 15.9877 30.0241 14.3094 28.4602 13.3378L18.8165 6.80145V0.441895H50.0932V7.50822C50.0932 9.27482 57.9124 12.8079 57.9124 21.6408V26.1455L57.5214 26.4105C56.0878 25.1739 54.3937 24.2023 52.8299 23.4957C49.7022 22.0824 39.798 18.1959 39.798 18.1959C37.8432 17.4893 35.8884 20.3158 35.8884 21.729C35.8884 23.4957 38.4949 24.3789 41.1012 26.1455L47.6172 30.562C48.9203 31.4452 48.9203 31.4452 48.9203 32.3286C48.9203 33.2119 43.7076 36.745 43.7076 36.745L29.3724 45.5779C29.3724 45.5779 28.0693 46.4611 26.766 46.4611H18.9468H15.0372C12.8217 46.4611 11.1276 45.3129 11.1276 43.8113C11.1276 42.3096 12.8217 41.1614 15.0372 41.1614H11.1276C8.91215 41.1614 7.21805 40.0132 7.21805 38.5115C7.21805 37.0099 8.91215 35.8617 11.1276 35.8617H7.21805C5.00257 35.8617 3.30847 34.7135 3.30847 33.2118C3.30847 32.5052 3.69943 31.8869 4.35108 31.4452C4.35108 31.4452 5.39368 30.562 7.34848 30.562H9.43354L9.5638 30.4737L12.6915 32.5936C14.2553 33.6535 16.7313 33.6535 18.1649 32.5936C19.7289 31.4452 19.7289 29.7669 18.165 28.707Z" fill="#FFD0A1"/>
<path d="M50.0864 52.1903C49.6966 52.1903 49.4367 52.0134 49.4367 51.748V49.9788C49.4367 49.2711 50.4761 48.0327 52.425 45.7328C55.4134 42.2829 59.8308 37.0639 59.8308 33.1718C59.8308 27.8643 55.8032 25.3875 52.2952 23.7953C49.3068 22.4684 39.4325 18.5762 39.3026 18.4878C39.1727 18.3994 38.9128 18.3994 38.5231 18.5762C37.3537 19.0185 36.4443 20.6992 36.4443 21.6723C36.4443 22.7338 37.6136 23.5299 39.4326 24.503C40.0823 24.8568 40.7318 25.2991 41.5114 25.8298L48.0078 30.2528C49.437 31.2258 49.437 31.3143 49.437 32.3758C49.437 33.3488 45.6691 36.0026 44.11 37.1525L29.8181 45.9983C29.6882 46.0867 28.2589 46.9713 26.8297 46.9713H15.1364C12.6678 46.9713 10.5889 45.5561 10.5889 43.8753C10.5889 42.9907 11.1086 42.1946 12.0181 41.6639H11.2386C8.77004 41.6639 6.69113 40.2486 6.69113 38.5678C6.69113 37.6832 7.21078 36.8871 8.12036 36.3564H7.34081C4.87226 36.3564 2.79335 34.9411 2.79335 33.2603C2.79335 32.4642 3.18312 31.7565 3.96268 31.2257C4.22258 31.0488 4.61236 31.0488 4.87211 31.2257C5.13201 31.4027 5.13201 31.6681 4.87211 31.8449C4.35246 32.2872 4.09256 32.818 4.09256 33.3487C4.09256 34.5872 5.52179 35.5602 7.34066 35.5602H21.6326C22.0223 35.5602 22.2822 35.7371 22.2822 36.0025C22.2822 36.2678 22.0223 36.4448 21.6326 36.4448H11.2384C9.41942 36.4448 7.99034 37.4179 7.99034 38.6562C7.99034 39.8947 9.41957 40.8676 11.2384 40.8676H24.231C25.0105 40.8676 26.05 40.3369 26.3098 40.0715L35.4045 33.8795C35.6644 33.7025 36.0542 33.7025 36.314 33.8795C36.5739 34.0564 36.5739 34.3218 36.314 34.4987L27.2192 40.6907C27.0893 40.7791 25.6601 41.6638 24.101 41.6638H15.0062C13.1872 41.6638 11.7581 42.6368 11.7581 43.8752C11.7581 45.1136 13.1873 46.0866 15.0062 46.0866H26.6995C27.4791 46.0866 28.5185 45.5558 28.7783 45.2905L43.0702 36.4447C45.4089 34.8525 48.0074 32.8179 48.0074 32.3757C48.0074 31.668 48.0074 31.668 46.8381 30.9604L40.3418 26.5374C39.6921 26.0951 39.0425 25.6529 38.3929 25.299C36.5739 24.2375 35.0147 23.2644 35.0147 21.8491C35.0147 20.6107 36.1841 18.6646 37.7432 18.0455C38.3929 17.7801 39.1724 17.6917 39.822 17.957C40.2117 18.134 49.8263 21.9376 52.9445 23.2645C56.7124 24.9452 61 27.6875 61 33.3487C61 37.5063 56.5826 42.6368 53.4643 46.3521C52.0351 48.0327 50.606 49.625 50.606 50.1557V51.9249C50.736 52.0134 50.4761 52.1903 50.0864 52.1903ZM18.9041 52.1903C18.5143 52.1903 18.2544 52.0134 18.2544 51.748V49.9788C18.2544 49.7134 18.5143 49.5365 18.9041 49.5365C19.2939 49.5365 19.5538 49.7134 19.5538 49.9788V51.748C19.5538 52.0134 19.2939 52.1903 18.9041 52.1903ZM26.6997 34.0563C25.5303 34.0563 24.361 33.7025 23.4516 33.1718L19.8137 30.695C19.8137 31.4911 19.4239 32.2872 18.5145 32.9064C16.8255 34.0563 13.8372 34.0563 12.0181 32.9064L1.36426 25.6529C-0.454754 24.4144 -0.454754 22.4684 1.36426 21.3185C2.27369 20.6993 3.44303 20.4339 4.61236 20.4339C3.18312 19.1955 3.31315 17.4264 5.00214 16.3649C5.91157 15.7457 7.0809 15.3918 8.25024 15.4803C7.60056 14.9496 7.34081 14.2419 7.34081 13.5343C7.34081 12.7382 7.86046 11.942 8.64002 11.3229C9.54945 10.7037 10.7188 10.3498 11.8881 10.4383C10.4589 9.19988 10.5889 7.43079 12.2779 6.36929C13.837 5.3078 16.3056 5.21937 18.1246 6.0155V0.442325C18.1246 0.176951 18.3845 0 18.7742 0C19.164 0 19.4239 0.176951 19.4239 0.442325V6.72288L28.7786 13.0919C29.688 13.711 30.0778 14.4187 30.0778 15.3033C30.0778 16.0994 29.5582 16.8955 28.7786 17.5147C27.8692 18.1339 26.6998 18.3992 25.5305 18.3992L29.688 21.2299C30.5975 21.8491 30.9872 22.5568 30.9872 23.4414C30.9872 24.2375 30.4676 25.0336 29.688 25.6528C28.7786 26.2719 27.7391 26.5373 26.4399 26.5373L29.688 28.7487C30.5975 29.3679 30.9872 30.0756 30.9872 30.9602C30.9872 31.7563 30.4676 32.5524 29.688 33.1716C29.0383 33.7025 27.869 34.0563 26.6997 34.0563ZM8.25024 16.1878C7.47068 16.1878 6.56125 16.3648 5.91157 16.807C4.61236 17.6915 4.61236 19.1069 5.91157 19.9031L24.2311 32.3757C25.4005 33.1718 27.6093 33.1718 28.7786 32.3757C29.4283 31.9333 29.688 31.4026 29.688 30.7834C29.688 30.1642 29.2983 29.6335 28.7786 29.1912L10.329 16.6302C9.93923 16.3648 9.15967 16.1878 8.25024 16.1878ZM4.61236 21.2299C3.8328 21.2299 2.92337 21.4069 2.27369 21.8491C1.62401 22.2914 1.36426 22.8222 1.36426 23.4414C1.36426 24.0605 1.75404 24.5913 2.27369 25.0336L12.9276 32.2871C14.0969 33.0833 16.3057 33.0833 17.475 32.2871C18.7742 31.4026 18.7742 29.9872 17.475 29.1911L6.82115 21.9375C6.30135 21.4069 5.39192 21.2299 4.61236 21.2299ZM20.7231 22.4684L24.361 24.9452C25.5303 25.7413 27.7391 25.7413 28.9085 24.9452C29.5582 24.5029 29.8179 23.9721 29.8179 23.3529C29.8179 22.7338 29.4281 22.203 28.9085 21.7607L14.2268 11.7649C13.0575 10.9688 10.8487 10.9688 9.67932 11.7649C9.02964 12.2072 8.76989 12.738 8.76989 13.3571C8.76989 13.9763 9.15967 14.5071 9.67932 14.9494L11.4983 16.1878L20.7231 22.4684ZM15.656 6.19203C14.8765 6.19203 13.967 6.36898 13.3174 6.8112C12.0181 7.69575 12.0181 9.11115 13.3174 9.90727L23.4516 16.807C24.6209 17.6031 26.8297 17.6031 27.999 16.807C28.6487 16.3647 28.9085 15.8339 28.9085 15.2148C28.9085 14.5956 28.5187 14.0648 27.999 13.6225L17.8648 6.72278C17.345 6.36898 16.4356 6.19203 15.656 6.19203ZM57.8819 22.1145C57.4921 22.1145 57.2322 21.9375 57.2322 21.6722C57.2322 15.657 53.5944 12.1187 51.3856 9.9957C50.3461 8.9342 49.4367 8.13807 49.4367 7.5189V0.442325C49.4367 0.176951 49.6966 0 50.0864 0C50.4761 0 50.736 0.176951 50.736 0.442325V7.51901C50.736 7.96133 51.5156 8.66893 52.425 9.55358C54.7637 11.765 58.5316 15.4802 58.5316 21.6724C58.5316 21.9376 58.1418 22.1145 57.8819 22.1145Z" fill="#51565F"/>
</svg>
