<svg width="30" height="31" viewBox="0 0 30 31" fill="none" xmlns="http://www.w3.org/2000/svg">
<path fill-rule="evenodd" clip-rule="evenodd" d="M0 15.0633C0 6.77069 6.71573 0.0482178 15 0.0482178C23.2843 0.0482178 30 6.77069 30 15.0633C30 23.3559 23.2843 30.0783 15 30.0783C6.71573 30.0783 0 23.3559 0 15.0633ZM15.0007 7.05524C12.8281 7.05524 12.5554 7.06475 11.702 7.10363C10.8504 7.14266 10.269 7.27763 9.76036 7.47567C9.23419 7.68021 8.78785 7.95382 8.34318 8.3991C7.89818 8.84422 7.62484 9.29101 7.41984 9.81754C7.2215 10.3269 7.0865 10.909 7.04817 11.7612C7.01 12.6154 7 12.8885 7 15.0634C7 17.2382 7.00967 17.5103 7.04833 18.3645C7.0875 19.2171 7.22234 19.799 7.42 20.3082C7.62451 20.8349 7.89784 21.2817 8.34268 21.7268C8.78718 22.1722 9.23352 22.4465 9.75936 22.651C10.2684 22.8491 10.8499 22.984 11.7014 23.0231C12.5547 23.062 12.8272 23.0715 14.9997 23.0715C17.1726 23.0715 17.4444 23.062 18.2978 23.0231C19.1495 22.984 19.7315 22.8491 20.2405 22.651C20.7665 22.4465 21.2121 22.1722 21.6567 21.7268C22.1017 21.2817 22.375 20.8349 22.58 20.3083C22.7767 19.799 22.9117 19.2169 22.9517 18.3647C22.99 17.5105 23 17.2382 23 15.0634C23 12.8885 22.99 12.6155 22.9517 11.7613C22.9117 10.9088 22.7767 10.3269 22.58 9.81771C22.375 9.29101 22.1017 8.84422 21.6567 8.3991C21.2116 7.95365 20.7666 7.68004 20.24 7.47567C19.73 7.27763 19.1483 7.14266 18.2966 7.10363C17.4433 7.06475 17.1716 7.05524 14.9983 7.05524H15.0007Z" fill="#9EA3B0"/>
<path fill-rule="evenodd" clip-rule="evenodd" d="M14.2831 8.49837C14.4961 8.49804 14.7337 8.49837 15.0007 8.49837C17.1368 8.49837 17.3899 8.50605 18.2334 8.54442C19.0135 8.58012 19.4368 8.71059 19.7188 8.8202C20.0921 8.96534 20.3583 9.13885 20.6381 9.41914C20.9181 9.69942 21.0915 9.96636 21.2368 10.3401C21.3463 10.622 21.4768 11.0458 21.5123 11.8266C21.5507 12.6708 21.559 12.9244 21.559 15.0615C21.559 17.1987 21.5507 17.4523 21.5123 18.2965C21.4767 19.0773 21.3463 19.501 21.2368 19.783C21.0918 20.1567 20.9181 20.4228 20.6381 20.7029C20.3581 20.9832 20.0923 21.1567 19.7188 21.3018C19.4371 21.412 19.0135 21.5421 18.2334 21.5778C17.3901 21.6162 17.1368 21.6245 15.0007 21.6245C12.8646 21.6245 12.6114 21.6162 11.7681 21.5778C10.988 21.5417 10.5647 21.4113 10.2825 21.3017C9.9092 21.1565 9.64253 20.983 9.36252 20.7027C9.08252 20.4224 8.90919 20.1562 8.76385 19.7823C8.65435 19.5003 8.52385 19.0766 8.48835 18.2958C8.45001 17.4516 8.44235 17.198 8.44235 15.0595C8.44235 12.921 8.45001 12.6688 8.48835 11.8246C8.52402 11.0438 8.65435 10.62 8.76385 10.3377C8.90885 9.96402 9.08252 9.69709 9.36252 9.4168C9.64253 9.13652 9.9092 8.96301 10.2825 8.81753C10.5645 8.70742 10.988 8.57728 11.7681 8.54141C12.5061 8.50805 12.7921 8.49804 14.2831 8.49637V8.49837ZM19.2711 9.82805C18.7411 9.82805 18.3111 10.258 18.3111 10.7887C18.3111 11.3192 18.7411 11.7497 19.2711 11.7497C19.8011 11.7497 20.2311 11.3192 20.2311 10.7887C20.2311 10.2582 19.8011 9.82805 19.2711 9.82805ZM15.0007 10.9509C12.7319 10.9509 10.8924 12.7922 10.8924 15.0634C10.8924 17.3345 12.7319 19.175 15.0007 19.175C17.2696 19.175 19.1085 17.3345 19.1085 15.0634C19.1085 12.7922 17.2696 10.9509 15.0007 10.9509Z" fill="#9EA3B0"/>
<path fill-rule="evenodd" clip-rule="evenodd" d="M15.0008 12.394C16.4734 12.394 17.6674 13.589 17.6674 15.0634C17.6674 16.5375 16.4734 17.7327 15.0008 17.7327C13.5279 17.7327 12.3341 16.5375 12.3341 15.0634C12.3341 13.589 13.5279 12.394 15.0008 12.394Z" fill="#9EA3B0"/>
</svg>
