<svg width="61" height="53" viewBox="0 0 61 53" fill="none" xmlns="http://www.w3.org/2000/svg">
<path d="M52.4731 34.7721L30.8704 37.8984L24.7344 32.7924C24.5307 32.622 24.254 32.5268 23.9643 32.5268H13.0714C13.0714 32.0255 12.5845 31.6204 11.9821 31.6204H7.625H0V33.4333H6.53572V46.1235H0V47.9364H7.625H11.9821C12.5845 47.9364 13.0714 47.5312 13.0714 47.0299H16.0822L27.7278 51.8758C28.231 52.0852 28.7768 52.1903 29.3203 52.1903C29.9401 52.1903 30.5588 52.0552 31.1133 51.786L54.8772 40.2497C55.9664 39.7213 56.6429 38.7414 56.6429 37.6917C56.6429 36.8152 56.1799 35.9885 55.3739 35.4238C54.57 34.8591 53.5079 34.6225 52.4731 34.7721ZM10.8929 46.1235H8.71429V33.4333H10.8929V46.1235ZM53.7792 38.6834L30.0164 50.2197C29.6133 50.4155 29.1221 50.4282 28.7027 50.2541L16.8273 45.3131C16.6759 45.2497 16.5081 45.217 16.3393 45.217H13.0714V34.3397H23.5133L32.0958 41.4816C32.4662 41.7898 32.6786 42.2167 32.6786 42.6536C32.6786 43.5673 31.7854 44.3106 30.6874 44.3106C30.1634 44.3106 29.6493 44.1338 29.2789 43.8256L23.6451 39.1375L22.1049 40.4192L27.7387 45.1074C28.5262 45.7627 29.573 46.1235 30.6874 46.1235C32.9858 46.1235 34.8572 44.5662 34.8572 42.6536C34.8572 41.7272 34.4236 40.8552 33.6361 40.1999L32.7537 39.4656L52.8445 36.5578C53.2487 36.497 53.6582 36.5913 53.9709 36.8107C54.2846 37.03 54.4643 37.3509 54.4643 37.6908C54.4643 38.0978 54.2018 38.4785 53.7792 38.6834Z" fill="#721B72"/>
<path d="M61.0001 6.23989V4.427H54.1583C53.96 4.25568 53.6844 4.427 53.3751 4.427H49.0179C48.4155 4.427 47.9286 4.427 47.9286 5.33344H44.9178L33.2712 0.347986C32.1917 -0.101612 30.926 -0.136963 29.8868 0.367927L6.12291 11.8689C5.03362 12.3974 4.35718 13.36 4.35718 14.4097C4.35718 15.2862 4.82012 16.1029 5.62511 16.6677C6.27323 17.1209 7.08257 17.3593 7.91479 17.3593C8.11957 17.3593 8.32327 17.3421 8.52697 17.313L30.1286 14.1858L36.2646 19.4314C36.4693 19.6009 36.746 19.8366 37.0358 19.8366H47.9286C47.9286 19.8366 48.4155 20.743 49.0179 20.743H52.5919C52.7901 20.743 53.0657 20.743 53.3751 20.743H61.0001V18.9301H54.4643V6.23989H61.0001ZM37.4867 18.0237L28.9053 10.7431C28.5284 10.4295 28.3215 9.94273 28.3215 9.50038C28.3215 8.58578 29.2147 7.80714 30.3127 7.80714C30.8443 7.80714 31.3442 7.96214 31.7211 8.27577L37.3549 12.9539L38.8952 11.6677L33.2625 6.97955C32.4749 6.32238 31.427 5.96071 30.3127 5.96071C28.0143 5.96071 26.1429 7.51707 26.1429 9.43058C26.1429 10.3561 26.5753 11.2272 27.364 11.8843L28.2452 12.6177L8.15443 15.5255C7.74704 15.5845 7.34073 15.4911 7.02702 15.2726C6.71548 15.0533 6.53575 14.7324 6.53575 14.3925C6.53575 13.9846 6.79827 13.6039 7.22091 13.399L30.9837 1.86356C31.3867 1.66868 31.878 1.65508 32.2974 1.82912L44.1728 6.91066C44.3242 6.97321 44.4919 7.14634 44.6608 7.14634H47.9286V18.0237H37.4867ZM50.1072 6.23989H52.2858V18.9301H50.1072V6.23989Z" fill="#721B72"/>
<path d="M30.5 21.6929C28.7256 20.4003 25.9522 20.4339 24.229 21.798C23.3554 22.4906 22.875 23.4133 22.875 24.3986C22.875 25.383 23.3554 26.3058 24.229 26.9974L29.7484 31.3701C29.9597 31.5368 30.2299 31.6202 30.5 31.6202C30.7701 31.6202 31.0403 31.5368 31.2505 31.371L36.7699 26.9983C37.6446 26.3058 38.125 25.383 38.125 24.3986C38.125 23.4133 37.6446 22.4906 36.771 21.798C36.771 21.7971 36.771 21.7971 36.771 21.7971C35.0467 20.4329 32.2734 20.4012 30.5 21.6929ZM35.2689 25.684L30.5 29.462L25.7311 25.684C25.2954 25.3377 25.0536 24.8809 25.0536 24.3977C25.0536 23.9146 25.2943 23.4568 25.7311 23.1106C26.2006 22.7389 26.8171 22.5531 27.4326 22.5531C28.0491 22.5531 28.6656 22.7389 29.134 23.1106L29.7473 23.5964C30.1689 23.9291 30.8279 23.9291 31.2494 23.5964L31.8627 23.1106C32.8006 22.3673 34.3267 22.3682 35.2667 23.1097C35.7057 23.4568 35.9464 23.9146 35.9464 24.3977C35.9464 24.8809 35.7046 25.3377 35.2689 25.684Z" fill="#721B72"/>
<path d="M17.8599 19.0798L16.0538 18.0656C15.6203 18.6003 15.226 19.1623 14.885 19.7343L16.8359 20.5419C17.1333 20.0406 17.4786 19.5493 17.8599 19.0798Z" fill="#721B72"/>
<path d="M13.4364 29.1503C13.5954 29.783 13.8057 30.4103 14.0616 31.0112L16.1149 30.4075C15.8916 29.8818 15.7075 29.3334 15.5681 28.7787L13.4364 29.1503Z" fill="#721B72"/>
<path d="M13.3949 23.3879L15.5332 23.7351C15.6628 23.1822 15.8382 22.6328 16.0549 22.1017L13.9907 21.5188C13.7435 22.1261 13.5441 22.7552 13.3949 23.3879Z" fill="#721B72"/>
<path d="M13.0715 26.1845C13.0726 26.5371 13.0879 26.887 13.1173 27.2341L15.2893 27.1063C15.2643 26.8008 15.2512 26.4908 15.2501 26.1817C15.2501 25.9243 15.2588 25.6687 15.2773 25.414L13.1031 25.3025C13.0824 25.5944 13.0715 25.8871 13.0715 26.1845Z" fill="#721B72"/>
<path d="M44.8829 21.9522C45.1095 22.4861 45.2925 23.0335 45.4287 23.5801L47.5626 23.2121C47.4057 22.5867 47.1955 21.9603 46.9384 21.3503L44.8829 21.9522Z" fill="#721B72"/>
<path d="M43.1412 33.2799L44.9451 34.296C45.3786 33.7621 45.7741 33.201 46.1161 32.6264L44.1652 31.8187C43.8667 32.3218 43.5214 32.8131 43.1412 33.2799Z" fill="#721B72"/>
<path d="M44.9462 30.2596L47.0104 30.8424C47.2587 30.2351 47.4581 29.607 47.6073 28.9734L45.469 28.6262C45.3383 29.18 45.1629 29.7284 44.9462 30.2596Z" fill="#721B72"/>
<path d="M47.9286 26.1844C47.9297 25.8281 47.9133 25.4746 47.8828 25.1238L45.7108 25.2561C45.737 25.5607 45.7511 25.8689 45.75 26.1817C45.75 26.4382 45.7413 26.6929 45.7228 26.9467L47.897 27.0582C47.9177 26.7672 47.9286 26.4754 47.9286 26.1844Z" fill="#721B72"/>
</svg>
