<svg width="1553" height="776" viewBox="0 0 1553 776" fill="none" xmlns="http://www.w3.org/2000/svg">
<path d="M1503.4 129.68L1252.92 247.799L1492.53 449.316L1503.4 442.56V129.678V129.68ZM59.5977 131.403V473.772C73.1864 474.654 89.5141 475.141 105.99 475.227C141.995 475.417 171.671 474.242 188.342 473.493L348.055 271.559L59.5977 131.403ZM1239.98 290.332L1218.63 297.237C1218.17 297.384 1202.36 302.293 1197.72 303.739L1165.55 313.469L1166.01 313.606C1151.1 318.239 1146.96 319.542 1130.04 324.791C1121.46 327.454 1121.25 327.516 1113.1 330.043C1051.56 313.512 984.782 300.806 906.853 290.815C808.844 305.611 705.018 327.02 601.343 347.109C644.384 373.006 692.218 381.439 740.4 381.741C796.272 382.089 853.387 369.949 892.721 356.348L915.167 348.588L937.692 364.85L1287.88 491.147L1424.72 445.698L1239.98 290.332H1239.98ZM388.63 294.485L251.023 468.459L301.526 487.863L394.933 434.96L402.416 430.724L413.7 430.372C418.25 430.23 422.739 430.163 427.167 430.175C458.142 430.275 485.835 434.292 506.607 443.452C521.991 450.23 532.219 459.254 538.152 469.703L545.068 469.488C581.451 468.351 614.231 472.102 637.975 482.568C661.716 493.036 673.251 508.823 675.526 527.006L675.738 528.643C695.272 530.486 712.758 534.329 726.978 540.598C750.722 551.065 762.254 566.848 764.529 585.031L765.127 589.76C767.074 590.066 768.994 590.403 770.89 590.757L777.056 586.433L793.648 574.796L802.18 568.81L824.414 576.726L1004.67 640.891C1024.28 638.475 1035.96 634.715 1042.46 630.152C1048.98 625.586 1052.27 618.83 1050.42 608.771L834.284 531.428L812.087 523.486L827.829 512.504L848.061 498.31L870.294 506.226L1113.97 592.96C1133.57 590.545 1145.27 586.785 1151.77 582.221C1158.27 577.659 1161.57 570.919 1159.73 560.878L879.469 461.529L857.206 453.633L888.793 431.383L911.066 439.277L1191.38 538.649C1211 536.233 1222.7 532.473 1229.21 527.906C1235.73 523.336 1239.02 516.575 1237.16 506.498L902.17 385.687C857.718 398.855 800.855 409.404 739.721 409.022C668.177 408.575 591.649 391.492 535.353 348.321C533.126 346.614 531.693 344.679 531.159 342.659C530.625 340.639 531.004 338.584 532.268 336.647C533.531 334.709 535.648 332.938 538.461 331.463C541.274 329.988 544.714 328.846 548.526 328.122C588 320.628 627.883 312.708 667.861 304.851L388.636 294.494L388.63 294.485ZM427.765 457.596L283.494 539.303C286.305 549.528 292.714 555.887 301.35 559.695C309.986 563.502 323.417 565.886 344.07 566.006L488.338 484.301C485.526 474.075 479.117 467.713 470.481 463.906C461.846 460.098 448.418 457.716 427.762 457.598L427.765 457.596ZM559.127 496.714L396.204 588.986C399.013 599.212 405.425 605.574 414.058 609.381C422.702 613.186 436.124 615.57 456.78 615.686L619.703 523.418C616.894 513.191 610.482 506.831 601.846 503.022C593.214 499.215 579.786 496.831 559.13 496.711L559.127 496.714ZM648.121 554.742L503.862 636.449C506.674 646.673 513.083 653.034 521.718 656.843C530.357 660.65 543.785 663.031 564.438 663.151L708.703 581.453C705.891 571.223 699.482 564.861 690.847 561.053C682.211 557.245 668.783 554.864 648.127 554.745L648.121 554.742ZM723.047 614.059L605.377 681.17C608.183 691.416 614.592 697.785 623.237 701.595C631.866 705.399 645.279 707.782 665.905 707.905L783.581 640.793C780.772 630.55 774.36 624.181 765.715 620.368C757.089 616.564 743.676 614.184 723.05 614.06L723.047 614.059ZM830.247 621.318C835.385 628.321 838.354 636.081 839.389 644.344L840.092 649.958L814.987 664.277L896.046 693.13C915.653 690.714 927.336 686.954 933.84 682.391C940.346 677.829 943.646 671.078 941.811 661.031L830.25 621.321L830.247 621.318Z" fill="black" fill-opacity="0.05"/>
</svg>
