<svg width="148" height="32" viewBox="0 0 148 32" fill="none" xmlns="http://www.w3.org/2000/svg">
<path d="M15.0003 0L19.635 10.5336L30 12.2232L22.4999 20.422L24.2703 32L15.0003 26.5339L5.72967 32L7.50014 20.422L0 12.2232L10.365 10.5336L15.0003 0Z" fill="#EFCE4A"/>
<path d="M133 0L137.635 10.5336L148 12.2232L140.5 20.422L142.27 32L133 26.5339L123.73 32L125.5 20.422L118 12.2232L128.365 10.5336L133 0Z" fill="#EFCE4A"/>
<path d="M93.0003 0L97.635 10.5336L108 12.2232L100.5 20.422L102.27 32L93.0003 26.5339L83.7297 32L85.5001 20.422L78 12.2232L88.365 10.5336L93.0003 0Z" fill="#EFCE4A"/>
<path d="M54.0003 0L58.635 10.5336L69 12.2232L61.4999 20.422L63.2703 32L54.0003 26.5339L44.7297 32L46.5001 20.422L39 12.2232L49.365 10.5336L54.0003 0Z" fill="#EFCE4A"/>
</svg>
