<?xml version="1.0" standalone="no"?>
<svg xmlns:xlink="http://www.w3.org/1999/xlink" id="wave" style="transform:rotate(180deg); transition: 0.3s" viewBox="0 0 1440 380" version="1.1" xmlns="http://www.w3.org/2000/svg"><defs><linearGradient id="sw-gradient-0" x1="0" x2="0" y1="1" y2="0"><stop stop-color="rgba(114, 27, 114, 1)" offset="0%"/><stop stop-color="rgba(71, 27, 114, 1)" offset="100%"/></linearGradient></defs><path style="transform:translate(0, 0px); opacity:1" fill="url(#sw-gradient-0)" d="M0,266L60,234.3C120,203,240,139,360,133C480,127,600,177,720,202.7C840,228,960,228,1080,209C1200,190,1320,152,1440,152C1560,152,1680,190,1800,171C1920,152,2040,76,2160,69.7C2280,63,2400,127,2520,126.7C2640,127,2760,63,2880,38C3000,13,3120,25,3240,76C3360,127,3480,215,3600,234.3C3720,253,3840,203,3960,183.7C4080,165,4200,177,4320,190C4440,203,4560,215,4680,215.3C4800,215,4920,203,5040,171C5160,139,5280,89,5400,57C5520,25,5640,13,5760,19C5880,25,6000,51,6120,69.7C6240,89,6360,101,6480,126.7C6600,152,6720,190,6840,190C6960,190,7080,152,7200,114C7320,76,7440,38,7560,44.3C7680,51,7800,101,7920,145.7C8040,190,8160,228,8280,221.7C8400,215,8520,165,8580,139.3L8640,114L8640,380L8580,380C8520,380,8400,380,8280,380C8160,380,8040,380,7920,380C7800,380,7680,380,7560,380C7440,380,7320,380,7200,380C7080,380,6960,380,6840,380C6720,380,6600,380,6480,380C6360,380,6240,380,6120,380C6000,380,5880,380,5760,380C5640,380,5520,380,5400,380C5280,380,5160,380,5040,380C4920,380,4800,380,4680,380C4560,380,4440,380,4320,380C4200,380,4080,380,3960,380C3840,380,3720,380,3600,380C3480,380,3360,380,3240,380C3120,380,3000,380,2880,380C2760,380,2640,380,2520,380C2400,380,2280,380,2160,380C2040,380,1920,380,1800,380C1680,380,1560,380,1440,380C1320,380,1200,380,1080,380C960,380,840,380,720,380C600,380,480,380,360,380C240,380,120,380,60,380L0,380Z"/><defs><linearGradient id="sw-gradient-1" x1="0" x2="0" y1="1" y2="0"><stop stop-color="rgba(243, 106, 62, 1)" offset="0%"/><stop stop-color="rgba(27, 27, 114, 1)" offset="100%"/></linearGradient></defs><path style="transform:translate(0, 50px); opacity:0.9" fill="url(#sw-gradient-1)" d="M0,38L60,50.7C120,63,240,89,360,114C480,139,600,165,720,145.7C840,127,960,63,1080,31.7C1200,0,1320,0,1440,44.3C1560,89,1680,177,1800,234.3C1920,291,2040,317,2160,285C2280,253,2400,165,2520,126.7C2640,89,2760,101,2880,133C3000,165,3120,215,3240,253.3C3360,291,3480,317,3600,272.3C3720,228,3840,114,3960,95C4080,76,4200,152,4320,190C4440,228,4560,228,4680,228C4800,228,4920,228,5040,221.7C5160,215,5280,203,5400,183.7C5520,165,5640,139,5760,107.7C5880,76,6000,38,6120,76C6240,114,6360,228,6480,234.3C6600,241,6720,139,6840,126.7C6960,114,7080,190,7200,190C7320,190,7440,114,7560,69.7C7680,25,7800,13,7920,31.7C8040,51,8160,101,8280,114C8400,127,8520,101,8580,88.7L8640,76L8640,380L8580,380C8520,380,8400,380,8280,380C8160,380,8040,380,7920,380C7800,380,7680,380,7560,380C7440,380,7320,380,7200,380C7080,380,6960,380,6840,380C6720,380,6600,380,6480,380C6360,380,6240,380,6120,380C6000,380,5880,380,5760,380C5640,380,5520,380,5400,380C5280,380,5160,380,5040,380C4920,380,4800,380,4680,380C4560,380,4440,380,4320,380C4200,380,4080,380,3960,380C3840,380,3720,380,3600,380C3480,380,3360,380,3240,380C3120,380,3000,380,2880,380C2760,380,2640,380,2520,380C2400,380,2280,380,2160,380C2040,380,1920,380,1800,380C1680,380,1560,380,1440,380C1320,380,1200,380,1080,380C960,380,840,380,720,380C600,380,480,380,360,380C240,380,120,380,60,380L0,380Z"/></svg>